<svg width="311" height="327" viewBox="0 0 311 327" fill="none" xmlns="https://www.w3.org/2000/svg">
<g filter="url(#filter0_n_2008_2)">
<mask id="path-1-inside-1_2008_2" fill="white">
<path d="M45.0708 51.5317C45.0711 57.0544 49.5482 61.5312 55.0708 61.5312H288.898C301.049 61.5312 310.898 71.3811 310.898 83.5312V304.77C310.898 316.92 301.049 326.77 288.898 326.77H22C9.84973 326.77 0 316.92 0 304.77V71.5312C0 66.0084 4.47715 61.5312 10 61.5312H10.8555C16.3783 61.5312 20.8555 57.0541 20.8555 51.5312V49.998C20.8555 44.4752 16.3783 39.998 10.8555 39.998H10C4.47715 39.998 0 35.5209 0 29.998V10C0 4.47715 4.47715 0 10 0H55.9258C61.4486 0 65.9258 4.47715 65.9258 10V29.998C65.9258 35.5209 61.4486 39.998 55.9258 39.998H55.0708C49.5477 39.998 45.0705 44.4755 45.0708 49.9985L45.0708 51.5317Z"/>
</mask>
<path d="M45.0708 51.5317C45.0711 57.0544 49.5482 61.5312 55.0708 61.5312H288.898C301.049 61.5312 310.898 71.3811 310.898 83.5312V304.77C310.898 316.92 301.049 326.77 288.898 326.77H22C9.84973 326.77 0 316.92 0 304.77V71.5312C0 66.0084 4.47715 61.5312 10 61.5312H10.8555C16.3783 61.5312 20.8555 57.0541 20.8555 51.5312V49.998C20.8555 44.4752 16.3783 39.998 10.8555 39.998H10C4.47715 39.998 0 35.5209 0 29.998V10C0 4.47715 4.47715 0 10 0H55.9258C61.4486 0 65.9258 4.47715 65.9258 10V29.998C65.9258 35.5209 61.4486 39.998 55.9258 39.998H55.0708C49.5477 39.998 45.0705 44.4755 45.0708 49.9985L45.0708 51.5317Z" fill="url(#paint0_linear_2008_2)"/>
<path d="M310.898 83.5312L311.898 83.5312L311.898 83.5312L310.898 83.5312ZM310.898 304.77H309.898H310.898ZM45.0708 51.5317L44.0708 51.5317L45.0708 51.5317ZM55.0708 61.5312V62.5312H288.898V61.5312V60.5312H55.0708V61.5312ZM288.898 61.5312V62.5312C300.496 62.5312 309.898 71.9334 309.898 83.5313L310.898 83.5312L311.898 83.5312C311.898 70.8288 301.601 60.5312 288.898 60.5312V61.5312ZM310.898 83.5312H309.898V304.77H310.898H311.898V83.5312H310.898ZM310.898 304.77H309.898C309.898 316.368 300.496 325.77 288.898 325.77V326.77V327.77C301.601 327.77 311.898 317.472 311.898 304.77H310.898ZM288.898 326.77V325.77H22V326.77V327.77H288.898V326.77ZM22 326.77V325.77C10.402 325.77 1 316.368 1 304.77H0H-1C-1 317.472 9.29745 327.77 22 327.77V326.77ZM0 304.77H1V71.5312H0H-1V304.77H0ZM10 61.5312V62.5312H10.8555V61.5312V60.5312H10V61.5312ZM20.8555 51.5312H21.8555V49.998H20.8555H19.8555V51.5312H20.8555ZM10.8555 39.998V38.998H10V39.998V40.998H10.8555V39.998ZM0 29.998H1V10H0H-1V29.998H0ZM10 0V1H55.9258V0V-1H10V0ZM65.9258 10H64.9258V29.998H65.9258H66.9258V10H65.9258ZM55.9258 39.998V38.998H55.0708V39.998V40.998H55.9258V39.998ZM45.0708 49.9985L44.0708 49.9985L44.0708 51.5317L45.0708 51.5317L46.0708 51.5317L46.0708 49.9985L45.0708 49.9985ZM55.0708 39.998V38.998C48.9954 38.998 44.0705 43.9232 44.0708 49.9985L45.0708 49.9985L46.0708 49.9985C46.0705 45.0277 50.1 40.998 55.0708 40.998V39.998ZM65.9258 29.998H64.9258C64.9258 34.9686 60.8963 38.998 55.9258 38.998V39.998V40.998C62.0009 40.998 66.9258 36.0732 66.9258 29.998H65.9258ZM55.9258 0V1C60.8963 1 64.9258 5.02944 64.9258 10H65.9258H66.9258C66.9258 3.92487 62.0009 -1 55.9258 -1V0ZM20.8555 49.998H21.8555C21.8555 43.9229 16.9306 38.998 10.8555 38.998V39.998V40.998C15.826 40.998 19.8555 45.0275 19.8555 49.998H20.8555ZM10.8555 61.5312V62.5312C16.9306 62.5312 21.8555 57.6064 21.8555 51.5312H20.8555H19.8555C19.8555 56.5018 15.826 60.5312 10.8555 60.5312V61.5312ZM0 71.5312H1C1 66.5607 5.02944 62.5312 10 62.5312V61.5312V60.5312C3.92487 60.5312 -1 65.4561 -1 71.5312H0ZM10 39.998V38.998C5.02944 38.998 1 34.9686 1 29.998H0H-1C-1 36.0732 3.92487 40.998 10 40.998V39.998ZM0 10H1C1 5.02944 5.02944 1 10 1V0V-1C3.92487 -1 -1 3.92487 -1 10H0ZM55.0708 61.5312V60.5312C50.1004 60.5312 46.0711 56.5021 46.0708 51.5317L45.0708 51.5317L44.0708 51.5317C44.0711 57.6067 48.9959 62.5312 55.0708 62.5312V61.5312Z" fill="url(#paint1_linear_2008_2)" mask="url(#path-1-inside-1_2008_2)"/>
</g>
<defs>
<filter id="filter0_n_2008_2" x="0" y="0" width="310.898" height="326.77" filterUnits="userSpaceOnUse" color-interpolation-filters="sRGB">
<feFlood flood-opacity="0" result="BackgroundImageFix"/>
<feBlend mode="normal" in="SourceGraphic" in2="BackgroundImageFix" result="shape"/>
<feTurbulence type="fractalNoise" baseFrequency="3.6166234016418457 3.6166234016418457" stitchTiles="stitch" numOctaves="3" result="noise" seed="5218" />
<feColorMatrix in="noise" type="luminanceToAlpha" result="alphaNoise" />
<feComponentTransfer in="alphaNoise" result="coloredNoise1">
<feFuncA type="discrete" tableValues="1 1 1 1 1 1 1 1 1 1 1 1 1 1 1 1 1 1 1 1 1 1 1 1 1 1 1 1 1 1 1 1 1 1 1 1 1 1 1 1 1 1 1 1 1 1 1 1 1 1 1 0 0 0 0 0 0 0 0 0 0 0 0 0 0 0 0 0 0 0 0 0 0 0 0 0 0 0 0 0 0 0 0 0 0 0 0 0 0 0 0 0 0 0 0 0 0 0 0 0 "/>
</feComponentTransfer>
<feComposite operator="in" in2="shape" in="coloredNoise1" result="noise1Clipped" />
<feFlood flood-color="rgba(148, 145, 145, 0.07)" result="color1Flood" />
<feComposite operator="in" in2="noise1Clipped" in="color1Flood" result="color1" />
<feMerge result="effect1_noise_2008_2">
<feMergeNode in="shape" />
<feMergeNode in="color1" />
</feMerge>
</filter>
<linearGradient id="paint0_linear_2008_2" x1="26.1422" y1="11.6192" x2="368.02" y2="196.309" gradientUnits="userSpaceOnUse">
<stop stop-color="#32324E"/>
<stop offset="0.514045" stop-color="#32324E" stop-opacity="0.87"/>
<stop offset="1" stop-color="#303030"/>
</linearGradient>
<linearGradient id="paint1_linear_2008_2" x1="155.449" y1="11.6191" x2="155.449" y2="326.77" gradientUnits="userSpaceOnUse">
<stop stop-color="#160C17"/>
<stop offset="1" stop-color="#767272"/>
</linearGradient>
</defs>
</svg>
