<svg width="311" height="393" viewBox="0 0 311 393" fill="none" xmlns="https://www.w3.org/2000/svg">
<g filter="url(#filter0_n_408_2052)">
<mask id="path-1-inside-1_408_2052" fill="white">
<path d="M45.0708 52.4946C45.0711 58.0173 49.5482 62.4941 55.0708 62.4941H288.898C301.049 62.4941 310.898 72.344 310.898 84.4941V370.877C310.898 383.027 301.049 392.877 288.898 392.877H22C9.84974 392.877 0 383.026 0 370.876V72.4941C0 66.9713 4.47715 62.4941 10 62.4941H10.8555C16.3783 62.4941 20.8555 58.017 20.8555 52.4941V50.9609C20.8555 45.4381 16.3783 40.9609 10.8555 40.9609H10C4.47715 40.9609 0 36.4838 0 30.9609V10C0 4.47715 4.47715 0 10 0H123.244C128.767 0 133.244 4.47715 133.244 10V30.9609C133.244 36.4838 128.767 40.9609 123.244 40.9609H55.0708C49.5477 40.9609 45.0705 45.4384 45.0708 50.9614L45.0708 52.4946Z"/>
</mask>
<path d="M45.0708 52.4946C45.0711 58.0173 49.5482 62.4941 55.0708 62.4941H288.898C301.049 62.4941 310.898 72.344 310.898 84.4941V370.877C310.898 383.027 301.049 392.877 288.898 392.877H22C9.84974 392.877 0 383.026 0 370.876V72.4941C0 66.9713 4.47715 62.4941 10 62.4941H10.8555C16.3783 62.4941 20.8555 58.017 20.8555 52.4941V50.9609C20.8555 45.4381 16.3783 40.9609 10.8555 40.9609H10C4.47715 40.9609 0 36.4838 0 30.9609V10C0 4.47715 4.47715 0 10 0H123.244C128.767 0 133.244 4.47715 133.244 10V30.9609C133.244 36.4838 128.767 40.9609 123.244 40.9609H55.0708C49.5477 40.9609 45.0705 45.4384 45.0708 50.9614L45.0708 52.4946Z" fill="url(#paint0_linear_408_2052)"/>
<path d="M288.898 62.4941V61.4941V62.4941ZM310.898 84.4941H311.898V84.4941L310.898 84.4941ZM310.898 370.877L311.898 370.877V370.877H310.898ZM45.0708 52.4946L44.0708 52.4946L45.0708 52.4946ZM55.0708 62.4941V63.4941H288.898V62.4941V61.4941H55.0708V62.4941ZM288.898 62.4941V63.4941C300.496 63.4941 309.898 72.8963 309.898 84.4941L310.898 84.4941L311.898 84.4941C311.898 71.7917 301.601 61.4941 288.898 61.4941V62.4941ZM310.898 84.4941H309.898V370.877H310.898H311.898V84.4941H310.898ZM310.898 370.877L309.898 370.877C309.898 382.475 300.496 391.877 288.898 391.877V392.877V393.877C301.601 393.877 311.898 383.579 311.898 370.877L310.898 370.877ZM288.898 392.877V391.877H22V392.877V393.877H288.898V392.877ZM22 392.877V391.877C10.4021 391.877 1 382.474 1 370.876H0H-1C-1 383.578 9.29739 393.877 22 393.877V392.877ZM0 370.876H1V72.4941H0H-1V370.876H0ZM10 62.4941V63.4941H10.8555V62.4941V61.4941H10V62.4941ZM20.8555 52.4941H21.8555V50.9609H20.8555H19.8555V52.4941H20.8555ZM10.8555 40.9609V39.9609H10V40.9609V41.9609H10.8555V40.9609ZM0 30.9609H1V10H0H-1V30.9609H0ZM10 0V1H123.244V0V-1H10V0ZM133.244 10H132.244V30.9609H133.244H134.244V10H133.244ZM123.244 40.9609V39.9609H55.0708V40.9609V41.9609H123.244V40.9609ZM45.0708 50.9614L44.0708 50.9614L44.0708 52.4946L45.0708 52.4946L46.0708 52.4945L46.0708 50.9613L45.0708 50.9614ZM55.0708 40.9609V39.9609C48.9954 39.9609 44.0705 44.8861 44.0708 50.9614L45.0708 50.9614L46.0708 50.9613C46.0705 45.9906 50.1 41.9609 55.0708 41.9609V40.9609ZM133.244 30.9609H132.244C132.244 35.9315 128.215 39.9609 123.244 39.9609V40.9609V41.9609C129.319 41.9609 134.244 37.0361 134.244 30.9609H133.244ZM123.244 0V1C128.215 1 132.244 5.02944 132.244 10H133.244H134.244C134.244 3.92487 129.319 -1 123.244 -1V0ZM20.8555 50.9609H21.8555C21.8555 44.8858 16.9306 39.9609 10.8555 39.9609V40.9609V41.9609C15.826 41.9609 19.8555 45.9904 19.8555 50.9609H20.8555ZM10.8555 62.4941V63.4941C16.9306 63.4941 21.8555 58.5693 21.8555 52.4941H20.8555H19.8555C19.8555 57.4647 15.826 61.4941 10.8555 61.4941V62.4941ZM0 72.4941H1C1 67.5236 5.02944 63.4941 10 63.4941V62.4941V61.4941C3.92487 61.4941 -1 66.419 -1 72.4941H0ZM10 40.9609V39.9609C5.02944 39.9609 1 35.9315 1 30.9609H0H-1C-1 37.0361 3.92487 41.9609 10 41.9609V40.9609ZM0 10H1C1 5.02944 5.02944 1 10 1V0V-1C3.92487 -1 -1 3.92487 -1 10H0ZM55.0708 62.4941V61.4941C50.1004 61.4941 46.0711 57.465 46.0708 52.4945L45.0708 52.4946L44.0708 52.4946C44.0711 58.5696 48.9959 63.4941 55.0708 63.4941V62.4941Z" fill="url(#paint1_linear_408_2052)" mask="url(#path-1-inside-1_408_2052)"/>
</g>
<defs>
<filter id="filter0_n_408_2052" x="0" y="0" width="310.898" height="392.877" filterUnits="userSpaceOnUse" color-interpolation-filters="sRGB">
<feFlood flood-opacity="0" result="BackgroundImageFix"/>
<feBlend mode="normal" in="SourceGraphic" in2="BackgroundImageFix" result="shape"/>
<feTurbulence type="fractalNoise" baseFrequency="3.6166234016418457 3.6166234016418457" stitchTiles="stitch" numOctaves="3" result="noise" seed="5218" />
<feColorMatrix in="noise" type="luminanceToAlpha" result="alphaNoise" />
<feComponentTransfer in="alphaNoise" result="coloredNoise1">
<feFuncA type="discrete" tableValues="1 1 1 1 1 1 1 1 1 1 1 1 1 1 1 1 1 1 1 1 1 1 1 1 1 1 1 1 1 1 1 1 1 1 1 1 1 1 1 1 1 1 1 1 1 1 1 1 1 1 1 0 0 0 0 0 0 0 0 0 0 0 0 0 0 0 0 0 0 0 0 0 0 0 0 0 0 0 0 0 0 0 0 0 0 0 0 0 0 0 0 0 0 0 0 0 0 0 0 0 "/>
</feComponentTransfer>
<feComposite operator="in" in2="shape" in="coloredNoise1" result="noise1Clipped" />
<feFlood flood-color="rgba(148, 145, 145, 0.07)" result="color1Flood" />
<feComposite operator="in" in2="noise1Clipped" in="color1Flood" result="color1" />
<feMerge result="effect1_noise_408_2052">
<feMergeNode in="shape" />
<feMergeNode in="color1" />
</feMerge>
</filter>
<linearGradient id="paint0_linear_408_2052" x1="26.1422" y1="12.5821" x2="368.02" y2="197.271" gradientUnits="userSpaceOnUse">
<stop stop-color="#32324E"/>
<stop offset="0.514045" stop-color="#32324E" stop-opacity="0.87"/>
<stop offset="1" stop-color="#303030"/>
</linearGradient>
<linearGradient id="paint1_linear_408_2052" x1="155.449" y1="12.582" x2="155.449" y2="327.732" gradientUnits="userSpaceOnUse">
<stop stop-color="#160C17"/>
<stop offset="1" stop-color="#767272"/>
</linearGradient>
</defs>
</svg>
