<svg width="45" height="46" viewBox="0 0 45 46" fill="none" xmlns="http://www.w3.org/2000/svg">
<g filter="url(#filter0_d_409_2256)">
<path d="M20.2975 7.14947L12.633 11.4045C12.0348 11.738 11.5368 12.2255 11.1908 12.8165C10.8447 13.4074 10.6632 14.0802 10.6651 14.7651V23.0203C10.6634 23.705 10.8451 24.3775 11.1911 24.9682C11.5372 25.5589 12.035 26.0463 12.633 26.3796L20.3001 30.636C20.8704 30.9533 21.5123 31.1199 22.165 31.1199C22.8177 31.1199 23.4597 30.9533 24.03 30.636L31.6971 26.3809C32.2953 26.0474 32.7932 25.5599 33.1393 24.969C33.4854 24.378 33.6669 23.7052 33.665 23.0203V14.7651C33.6667 14.0805 33.485 13.4079 33.139 12.8172C32.7929 12.2265 32.2951 11.7392 31.6971 11.4058L24.03 7.14947C23.4597 6.8321 22.8177 6.66553 22.165 6.66553C21.5123 6.66553 20.8704 6.8321 20.3001 7.14947H20.2975Z" stroke="#F44B82" stroke-width="1.93061"/>
<path d="M32.885 12.4521L22.1637 18.8927M22.1637 18.8927L11.4424 12.4521M22.1637 18.8927V31.107" stroke="#F44B82" stroke-width="1.93061"/>
</g>
<defs>
<filter id="filter0_d_409_2256" x="0.000195503" y="0.000195503" width="44.3297" height="45.7848" filterUnits="userSpaceOnUse" color-interpolation-filters="sRGB">
<feFlood flood-opacity="0" result="BackgroundImageFix"/>
<feColorMatrix in="SourceAlpha" type="matrix" values="0 0 0 0 0 0 0 0 0 0 0 0 0 0 0 0 0 0 127 0" result="hardAlpha"/>
<feOffset dy="4"/>
<feGaussianBlur stdDeviation="4.85"/>
<feComposite in2="hardAlpha" operator="out"/>
<feColorMatrix type="matrix" values="0 0 0 0 0.815686 0 0 0 0 0.203922 0 0 0 0 0.403922 0 0 0 0.6 0"/>
<feBlend mode="normal" in2="BackgroundImageFix" result="effect1_dropShadow_409_2256"/>
<feBlend mode="normal" in="SourceGraphic" in2="effect1_dropShadow_409_2256" result="shape"/>
</filter>
</defs>
</svg>
