<svg width="34" height="31" viewBox="0 0 34 31" fill="none" xmlns="http://www.w3.org/2000/svg">
<path d="M3.54565 13.7124L0.349609 23.9933C0.349609 23.9933 2.94593 20.7428 3.02969 21.3211C3.11345 21.8994 4.11845 26.0885 4.11845 26.0885L8.30609 22.5972L8.64107 27.9868L13.6712 21.3213L5.73787 13.7124H3.54565Z" fill="#F39C12"/>
<path d="M30.2349 13.7124L33.431 23.9933C33.431 23.9933 30.8346 20.7428 30.7509 21.3211C30.6671 21.8994 29.6621 26.0885 29.6621 26.0885L25.4745 22.5972L25.1395 27.9868L20.1094 21.3213L28.0427 13.7124H30.2349Z" fill="#F39C12"/>
<path d="M12.4019 9.19971H21.3788C22.9521 9.19979 24.461 9.82484 25.5734 10.9374C26.6859 12.0499 27.3109 13.5588 27.3109 15.1321V19.6206C27.3109 20.9891 27.0414 22.3441 26.5177 23.6084C25.9941 24.8727 25.2265 26.0215 24.2588 26.9892C23.2912 27.9569 22.1424 28.7244 20.8781 29.2481C19.6138 29.7718 18.2588 30.0414 16.8903 30.0414C14.1266 30.0414 11.4761 28.9435 9.52184 26.9893C7.56761 25.035 6.46973 22.3845 6.46973 19.6208V15.1321C6.46973 13.5588 7.09471 12.0499 8.2072 10.9373C9.31969 9.82481 10.8286 9.19977 12.4019 9.19971Z" fill="#F4DCC6"/>
<path d="M16.8903 29.2836C14.1266 29.2836 11.4761 28.1857 9.52184 26.2315C7.56761 24.2772 6.46973 21.6267 6.46973 18.863V19.6211C6.46972 20.9895 6.73925 22.3446 7.26292 23.6089C7.7866 24.8732 8.55418 26.0219 9.52182 26.9896C10.4895 27.9572 11.6382 28.7248 12.9025 29.2485C14.1668 29.7722 15.5219 30.0417 16.8903 30.0417C19.654 30.0417 22.3045 28.9438 24.2588 26.9896C26.213 25.0354 27.3109 22.3848 27.3109 19.6211V18.8628C27.3109 20.2313 27.0414 21.5863 26.5177 22.8506C25.9941 24.115 25.2265 25.2637 24.2588 26.2314C23.2912 27.1991 22.1424 27.9667 20.8781 28.4904C19.6138 29.0141 18.2588 29.2836 16.8903 29.2836Z" fill="#C99673"/>
<path d="M21.3788 9.19971H12.4019C10.8286 9.19975 9.3197 9.82477 8.20721 10.9373C7.09472 12.0498 6.46973 13.5587 6.46973 15.132V15.2859H27.3109V15.132C27.3109 13.5587 26.6859 12.0498 25.5734 10.9373C24.461 9.8248 22.9521 9.19977 21.3788 9.19971Z" fill="#C99673"/>
<path d="M11.3687 21.2628C13.2356 21.2628 14.7491 19.7493 14.7491 17.8824C14.7491 16.0154 13.2356 14.502 11.3687 14.502C9.50174 14.502 7.98828 16.0154 7.98828 17.8824C7.98828 19.7493 9.50174 21.2628 11.3687 21.2628Z" fill="#ECF0F1"/>
<path d="M11.3687 14.502C10.4721 14.502 9.61233 14.8581 8.97838 15.492C8.34443 16.126 7.98828 16.9858 7.98828 17.8824H14.7491C14.7491 16.9858 14.3929 16.126 13.759 15.492C13.125 14.8581 12.2652 14.502 11.3687 14.502Z" fill="#BDC3C7"/>
<path d="M11.3686 20.4788C12.6406 20.4788 13.6718 19.3164 13.6718 17.8825C13.6718 16.4485 12.6406 15.2861 11.3686 15.2861C10.0966 15.2861 9.06543 16.4485 9.06543 17.8825C9.06543 19.3164 10.0966 20.4788 11.3686 20.4788Z" fill="#414141"/>
<path d="M11.3688 19.1909C12.0099 19.1909 12.5297 18.605 12.5297 17.8823C12.5297 17.1596 12.0099 16.5737 11.3688 16.5737C10.7277 16.5737 10.208 17.1596 10.208 17.8823C10.208 18.605 10.7277 19.1909 11.3688 19.1909Z" fill="#313131"/>
<path d="M22.4117 21.2628C24.2786 21.2628 25.7921 19.7493 25.7921 17.8824C25.7921 16.0154 24.2786 14.502 22.4117 14.502C20.5447 14.502 19.0312 16.0154 19.0312 17.8824C19.0312 19.7493 20.5447 21.2628 22.4117 21.2628Z" fill="#ECF0F1"/>
<path d="M22.4117 14.502C21.5151 14.502 20.6553 14.8581 20.0213 15.492C19.3874 16.126 19.0312 16.9858 19.0312 17.8824H25.7921C25.7921 16.9858 25.4359 16.126 24.802 15.492C24.168 14.8581 23.3082 14.502 22.4117 14.502Z" fill="#BDC3C7"/>
<path d="M22.4116 20.4788C23.6836 20.4788 24.7148 19.3164 24.7148 17.8825C24.7148 16.4485 23.6836 15.2861 22.4116 15.2861C21.1396 15.2861 20.1084 16.4485 20.1084 17.8825C20.1084 19.3164 21.1396 20.4788 22.4116 20.4788Z" fill="#414141"/>
<path d="M22.4118 19.1909C23.0529 19.1909 23.5726 18.605 23.5726 17.8823C23.5726 17.1596 23.0529 16.5737 22.4118 16.5737C21.7707 16.5737 21.251 17.1596 21.251 17.8823C21.251 18.605 21.7707 19.1909 22.4118 19.1909Z" fill="#313131"/>
<path d="M9.86902 18.636C10.2853 18.636 10.6228 18.2985 10.6228 17.8822C10.6228 17.4659 10.2853 17.1284 9.86902 17.1284C9.45271 17.1284 9.11523 17.4659 9.11523 17.8822C9.11523 18.2985 9.45271 18.636 9.86902 18.636Z" fill="#ECF0F1"/>
<path d="M20.913 18.636C21.3293 18.636 21.6667 18.2985 21.6667 17.8822C21.6667 17.4659 21.3293 17.1284 20.913 17.1284C20.4967 17.1284 20.1592 17.4659 20.1592 17.8822C20.1592 18.2985 20.4967 18.636 20.913 18.636Z" fill="#ECF0F1"/>
<path d="M17.2503 22.5975L18.4135 21.2757C18.4744 21.2064 18.5141 21.121 18.5277 21.0297C18.5414 20.9384 18.5284 20.8451 18.4904 20.7611C18.4523 20.677 18.3908 20.6056 18.3133 20.5556C18.2357 20.5056 18.1454 20.479 18.0531 20.479H15.727C15.6347 20.479 15.5444 20.5055 15.4668 20.5555C15.3892 20.6056 15.3277 20.6769 15.2897 20.761C15.2517 20.8451 15.2387 20.9384 15.2524 21.0297C15.266 21.121 15.3057 21.2064 15.3667 21.2757L16.5298 22.5975C16.5748 22.6487 16.6302 22.6897 16.6924 22.7178C16.7545 22.7459 16.8219 22.7604 16.89 22.7604C16.9582 22.7604 17.0256 22.7459 17.0877 22.7178C17.1498 22.6897 17.2053 22.6487 17.2503 22.5975Z" fill="#C99673"/>
<path d="M21.3612 13.164C22.6194 12.9165 23.5718 12.3725 23.4885 11.949C23.4052 11.5255 22.3176 11.3829 21.0594 11.6304C19.8012 11.8779 18.8488 12.4219 18.9321 12.8454C19.0154 13.2689 20.1029 13.4116 21.3612 13.164Z" fill="#F39C12"/>
<path d="M14.8088 12.8669C14.8921 12.4434 13.9397 11.8994 12.6815 11.6519C11.4233 11.4044 10.3357 11.547 10.2524 11.9705C10.1691 12.394 11.1215 12.938 12.3797 13.1855C13.638 13.433 14.7255 13.2904 14.8088 12.8669Z" fill="#F39C12"/>
<path d="M16.8907 27.9867C17.4458 27.9867 17.8957 27.668 17.8957 27.2749C17.8957 26.8817 17.4458 26.563 16.8907 26.563C16.3357 26.563 15.8857 26.8817 15.8857 27.2749C15.8857 27.668 16.3357 27.9867 16.8907 27.9867Z" fill="#C99673"/>
<path d="M16.8903 0.367676C13.3511 0.367734 9.95691 1.7737 7.45436 4.27629C4.95181 6.77888 3.5459 10.1731 3.5459 13.7123V19.6205L5.73812 13.7123V19.6205L9.00505 13.7123L11.1751 10.2581L12.0847 11.4824H12.06L13.7412 13.7116L18.1962 19.6198L18.2569 19.1844C18.7578 15.5887 20.1165 12.1662 22.2184 9.20605L25.0039 13.7116L28.2709 19.6198V13.7116L30.2344 19.6198V13.7116C30.2342 10.1726 28.8283 6.77858 26.3258 4.27614C23.8233 1.7737 20.4293 0.367793 16.8903 0.367676Z" fill="#F1C40F"/>
<path d="M24.6067 13.0698L26.3829 11.2938L28.2815 13.1923L30.0377 11.4361C29.76 9.81586 29.1833 8.26142 28.3371 6.85206L28.2815 6.79639L26.383 8.69482L24.4845 6.79639L22.586 8.69482L20.6875 6.79639L18.789 8.69482L16.8902 6.79639L14.9917 8.69482L13.0932 6.79639L11.1947 8.69482L9.29644 6.79639L7.39802 8.69482L5.49944 6.79639L5.4437 6.85213C4.59758 8.26148 4.02093 9.81589 3.74316 11.4361L5.49944 13.1923L7.39802 11.2938L9.29644 13.1923L9.39153 13.0972L11.175 10.2586L12.0846 11.4829H12.0598L13.2392 13.0468L14.9919 11.294L16.8902 13.1923L18.7887 11.2938L20.1859 12.691C20.7583 11.4715 21.4385 10.3056 22.2183 9.20709L24.6067 13.0698Z" fill="#FFEDA1"/>
<path d="M21.0811 23.7436C20.3579 24.3423 18.8416 25.3389 16.8144 25.2941C16.0445 25.2752 15.2852 25.1107 14.5765 24.8094C14.5372 24.7928 14.4951 24.7842 14.4524 24.7839C14.4098 24.7837 14.3676 24.7918 14.3281 24.8079C14.2886 24.824 14.2527 24.8477 14.2224 24.8776C14.1921 24.9076 14.168 24.9432 14.1514 24.9825C14.1349 25.0218 14.1262 25.0639 14.126 25.1065C14.1257 25.1492 14.1339 25.1914 14.1499 25.2309C14.166 25.2703 14.1897 25.3063 14.2197 25.3366C14.2496 25.3669 14.2853 25.391 14.3245 25.4076C15.1084 25.7407 15.9483 25.9223 16.7997 25.943C16.85 25.9442 16.8997 25.9447 16.9494 25.9447C19.1119 25.9447 20.72 24.8853 21.495 24.2436C21.5279 24.2164 21.555 24.183 21.575 24.1453C21.5949 24.1077 21.6072 24.0664 21.6112 24.024C21.6152 23.9815 21.6108 23.9387 21.5983 23.898C21.5857 23.8573 21.5653 23.8194 21.5381 23.7866C21.5109 23.7537 21.4775 23.7266 21.4398 23.7066C21.4022 23.6867 21.3609 23.6744 21.3185 23.6704C21.2761 23.6664 21.2332 23.6708 21.1925 23.6833C21.1518 23.6959 21.1139 23.7163 21.0811 23.7435V23.7436Z" fill="black"/>
<path d="M11.3857 14.9185C9.91303 14.9185 8.71484 16.2481 8.71484 17.8821C8.71484 19.5161 9.91303 20.8461 11.3857 20.8461C12.8584 20.8461 14.0565 19.5165 14.0565 17.8821C14.0565 16.2478 12.8584 14.9185 11.3857 14.9185ZM11.3857 20.111C10.3185 20.111 9.45024 19.1109 9.45024 17.8824C9.45024 16.6539 10.3185 15.6541 11.3857 15.6541C12.453 15.6541 13.3212 16.6543 13.3212 17.8824C13.3212 19.1105 12.4529 20.111 11.3857 20.111Z" fill="black"/>
<path d="M22.4296 14.9185C20.957 14.9185 19.7588 16.2481 19.7588 17.8821C19.7588 19.5161 20.957 20.8461 22.4296 20.8461C23.9022 20.8461 25.1005 19.5165 25.1005 17.8821C25.1005 16.2478 23.9024 14.9185 22.4296 14.9185ZM22.4296 20.111C21.3624 20.111 20.4942 19.1109 20.4942 17.8824C20.4942 16.6539 21.3624 15.6541 22.4296 15.6541C23.4968 15.6541 24.3651 16.6543 24.3651 17.8824C24.3651 19.1105 23.4969 20.111 22.4296 20.111Z" fill="black"/>
<path d="M33.7994 23.8842L30.62 13.6554C30.5888 6.12056 24.45 0 16.9082 0C9.3663 0 3.22808 6.11983 3.19653 13.654L0.0163817 23.8843C-0.00888924 23.9661 -0.00482117 24.0542 0.0278842 24.1333C0.0605895 24.2124 0.119882 24.2777 0.195535 24.3177C0.271188 24.3578 0.358459 24.3703 0.442297 24.3529C0.526134 24.3355 0.601282 24.2894 0.65478 24.2226C1.39121 23.3006 2.28802 22.2714 2.77096 21.8252C3.03033 23.0524 3.74352 26.027 3.77845 26.1738C3.79303 26.2347 3.82289 26.2908 3.8652 26.3368C3.90752 26.3829 3.96088 26.4174 4.02025 26.4371C4.07963 26.4568 4.14304 26.461 4.2045 26.4494C4.26596 26.4377 4.32343 26.4106 4.37148 26.3705L7.09436 24.1004C7.38952 24.7439 7.74728 25.3568 8.16245 25.9303L8.29166 28.0092C8.29635 28.0842 8.32389 28.1559 8.37057 28.2148C8.41726 28.2736 8.48084 28.3168 8.55278 28.3384C8.62471 28.36 8.70155 28.3591 8.77294 28.3357C8.84434 28.3124 8.90687 28.2677 8.95212 28.2078L9.51147 27.4666C11.5106 29.3559 14.157 30.4085 16.9076 30.4085C19.6583 30.4085 22.3046 29.3559 24.3038 27.4666L24.863 28.2077C24.9083 28.2677 24.9708 28.3123 25.0422 28.3357C25.1136 28.359 25.1904 28.3599 25.2624 28.3383C25.3343 28.3167 25.3979 28.2736 25.4446 28.2147C25.4913 28.1559 25.5188 28.0841 25.5235 28.0092L25.6528 25.9303C26.0679 25.3568 26.4257 24.7438 26.7209 24.1003L29.4437 26.3704C29.4917 26.4104 29.5492 26.4376 29.6106 26.4492C29.6721 26.4609 29.7355 26.4567 29.7949 26.437C29.8542 26.4173 29.9076 26.3828 29.9499 26.3367C29.9922 26.2907 30.0221 26.2346 30.0367 26.1737C30.0719 26.0267 30.7852 23.0524 31.0442 21.825C31.5271 22.2712 32.4239 23.3004 33.1604 24.2224C33.2139 24.2893 33.289 24.3354 33.3729 24.3527C33.4567 24.3701 33.544 24.3577 33.6196 24.3176C33.6953 24.2775 33.7546 24.2123 33.7873 24.1331C33.82 24.054 33.824 23.966 33.7988 23.8842L33.7994 23.8842ZM3.9312 13.7122C3.9312 6.5568 9.75268 0.735397 16.9082 0.735397C24.0637 0.735397 29.885 6.5568 29.885 13.7122V17.3486L28.6377 13.5962C28.6101 13.5134 28.5539 13.4431 28.4793 13.3979C28.4046 13.3526 28.3162 13.3355 28.2301 13.3494C28.1439 13.3634 28.0655 13.4075 28.0089 13.474C27.9523 13.5405 27.9212 13.6249 27.9211 13.7122V18.1956L25.3435 13.5343C25.3406 13.5291 25.3376 13.524 25.3345 13.5189L22.549 9.0134C22.517 8.96177 22.4729 8.91885 22.4203 8.88846C22.3678 8.85806 22.3086 8.84114 22.2479 8.8392C22.1873 8.83727 22.1271 8.85037 22.0727 8.87736C22.0183 8.90434 21.9715 8.94435 21.9364 8.99384C19.8908 11.8813 18.5359 15.2002 17.9762 18.6943L12.4517 11.3678C12.4393 11.3302 12.421 11.2949 12.3975 11.2632L11.4878 10.0388C11.4522 9.99084 11.4054 9.95227 11.3515 9.92645C11.2975 9.90064 11.2381 9.88836 11.1784 9.89069C11.1186 9.89301 11.0604 9.90987 11.0086 9.9398C10.9569 9.96973 10.9132 10.0118 10.8814 10.0624L8.71135 13.5166C8.70767 13.5224 8.704 13.5283 8.70091 13.5343L6.12342 18.1956V13.7122C6.12338 13.626 6.09304 13.5425 6.0377 13.4764C5.98237 13.4103 5.90555 13.3657 5.82069 13.3505C5.73582 13.3352 5.6483 13.3503 5.57342 13.3931C5.49854 13.4358 5.44106 13.5035 5.41104 13.5843L3.9312 17.5725V13.7122ZM23.1263 12.0368C23.0057 12.2085 22.4156 12.5982 21.3087 12.8155C21.0432 12.8686 20.7745 12.9038 20.5043 12.9211C20.6406 12.6276 20.7831 12.3371 20.932 12.0498C21.002 12.0335 21.074 12.0178 21.1492 12.003C22.2561 11.7858 22.9498 11.9234 23.1263 12.0368ZM21.386 11.2177C21.6476 10.7617 21.9252 10.3152 22.2189 9.87822L23.0577 11.2348C22.5986 11.1245 21.9976 11.1304 21.3861 11.2177H21.386ZM11.9367 11.9065L12.6464 12.8478C12.5876 12.8379 12.5287 12.8275 12.467 12.8155C11.3602 12.5982 10.77 12.2085 10.6494 12.0368C10.7858 11.9493 11.2319 11.8484 11.9368 11.9065H11.9367ZM11.0493 11.1773L11.218 10.9089L11.3996 11.1534C11.2786 11.1565 11.1614 11.1644 11.0495 11.1773H11.0493ZM4.35611 25.4265C3.99451 23.9084 3.46804 21.6594 3.41142 21.2686C3.40125 21.1829 3.36588 21.1022 3.30978 21.0366C3.25369 20.971 3.17939 20.9235 3.0963 20.9001C2.82472 20.8266 2.55056 20.8871 1.27031 22.3443C1.26766 22.3473 1.26501 22.3503 1.26244 22.3533L3.1958 16.1338V19.6205C3.19579 19.7068 3.22611 19.7903 3.28145 19.8565C3.33679 19.9226 3.41363 19.9673 3.49853 19.9825C3.58343 19.9977 3.67099 19.9826 3.74589 19.9399C3.82079 19.8971 3.87826 19.8293 3.90825 19.7484L5.38802 15.7603V19.6205C5.388 19.7021 5.41508 19.7813 5.46501 19.8458C5.51494 19.9102 5.58487 19.9563 5.66382 19.9767C5.74277 19.997 5.82626 19.9906 5.90115 19.9584C5.97604 19.9261 6.03808 19.8699 6.07753 19.7985L6.12062 19.7205C6.13084 20.9738 6.36052 22.2156 6.79925 23.3897L4.35611 25.4265ZM8.96426 26.9719L8.96028 26.9083C8.96977 26.9186 8.97948 26.9288 8.98897 26.9391L8.96426 26.9719ZM24.8515 26.9719L24.8268 26.9391C24.8363 26.9289 24.846 26.9187 24.8555 26.9083L24.8515 26.9719ZM26.961 19.6205C26.961 25.1639 22.4512 29.6734 16.9082 29.6734C11.3649 29.6734 6.85528 25.1636 6.85528 19.6205V18.3927L8.09325 16.1539C7.81088 16.6861 7.66348 17.2796 7.664 17.8821C7.664 17.9681 7.69819 18.0507 7.75905 18.1115C7.81991 18.1724 7.90246 18.2066 7.98853 18.2066C8.0746 18.2066 8.15715 18.1724 8.21801 18.1115C8.27887 18.0507 8.31306 17.9681 8.31306 17.8821C8.31306 17.0716 8.63502 16.2943 9.2081 15.7212C9.78119 15.1482 10.5585 14.8262 11.3689 14.8262C12.1794 14.8262 12.9567 15.1482 13.5298 15.7212C14.1028 16.2943 14.4248 17.0716 14.4248 17.8821C14.4248 17.9247 14.4332 17.9669 14.4495 18.0063C14.4658 18.0456 14.4897 18.0814 14.5199 18.1115C14.55 18.1417 14.5858 18.1656 14.6251 18.1819C14.6645 18.1982 14.7067 18.2066 14.7493 18.2066C14.792 18.2066 14.8342 18.1982 14.8735 18.1819C14.9129 18.1656 14.9487 18.1417 14.9788 18.1115C15.0089 18.0814 15.0329 18.0456 15.0492 18.0063C15.0655 17.9669 15.0739 17.9247 15.0739 17.8821C15.0741 17.0642 14.8037 16.2693 14.3047 15.6213C13.8057 14.9734 13.1063 14.5088 12.3156 14.3C11.5249 14.0912 10.6873 14.1501 9.93349 14.4673C9.1797 14.7845 8.55211 15.3424 8.14863 16.0537L9.33997 13.899L10.1613 12.5912C10.3049 12.7349 10.4683 12.8573 10.6466 12.9547C11.0823 13.2032 11.6785 13.4101 12.3253 13.5371C12.6324 13.598 12.9433 13.6377 13.2558 13.656L17.9204 19.8419C17.9642 19.9 18.0243 19.9438 18.093 19.9677C18.1617 19.9916 18.2359 19.9947 18.3064 19.9764C18.3768 19.9581 18.4402 19.9194 18.4886 19.865C18.537 19.8107 18.5681 19.7433 18.5782 19.6712L18.6388 19.2359C18.6905 18.8651 18.7518 18.496 18.8227 18.1284C18.8696 18.1689 18.9272 18.195 18.9886 18.2036C19.05 18.2123 19.1125 18.203 19.1688 18.1771C19.2251 18.1511 19.2727 18.1095 19.306 18.0572C19.3392 18.0049 19.3567 17.9441 19.3564 17.8821C19.3564 17.0717 19.6783 16.2944 20.2514 15.7213C20.8245 15.1482 21.6018 14.8263 22.4122 14.8263C23.2227 14.8263 24 15.1482 24.5731 15.7213C25.1462 16.2944 25.4681 17.0717 25.4681 17.8821C25.4681 17.9682 25.5023 18.0508 25.5632 18.1116C25.624 18.1725 25.7066 18.2067 25.7926 18.2067C25.8787 18.2067 25.9613 18.1725 26.0221 18.1116C26.083 18.0508 26.1172 17.9682 26.1172 17.8821C26.1174 17.1034 25.8722 16.3444 25.4164 15.713C24.9605 15.0816 24.3172 14.61 23.578 14.3651C22.8387 14.1203 22.0411 14.1147 21.2985 14.3491C20.5559 14.5835 19.9061 15.0461 19.4414 15.671C19.6543 14.991 19.8992 14.3221 20.176 13.6645C20.1885 13.6645 20.2005 13.6652 20.2127 13.6652C20.6285 13.662 21.0429 13.6191 21.4505 13.5371C22.0976 13.4101 22.6933 13.2032 23.1292 12.9547C23.47 12.7601 23.6654 12.5667 23.7713 12.3888L24.7043 13.8979L26.961 17.9794V19.6205ZM32.5454 22.3442C31.265 20.8868 30.991 20.826 30.7194 20.9001C30.6363 20.9234 30.5621 20.9709 30.506 21.0365C30.4499 21.1021 30.4145 21.1829 30.4043 21.2686C30.3477 21.6594 29.8212 23.9087 29.4596 25.4264L27.0166 23.3895C27.4673 22.184 27.6975 20.9073 27.6964 19.6203V19.309L27.967 19.7983C28.0065 19.8696 28.0685 19.9258 28.1434 19.958C28.2183 19.9903 28.3017 19.9967 28.3806 19.9763C28.4596 19.9559 28.5295 19.9099 28.5794 19.8455C28.6293 19.781 28.6564 19.7018 28.6564 19.6203V15.984L29.9037 19.7363C29.9313 19.8192 29.9874 19.8896 30.0621 19.9348C30.1368 19.9801 30.2252 19.9973 30.3114 19.9834C30.3976 19.9694 30.4761 19.9252 30.5327 19.8587C30.5893 19.7922 30.6204 19.7077 30.6204 19.6203V16.1345L32.5534 22.3528L32.5454 22.3442Z" fill="black"/>
</svg>
