<svg width="47" height="39" viewBox="0 0 47 39" fill="none" xmlns="https://www.w3.org/2000/svg">
<path fill-rule="evenodd" clip-rule="evenodd" d="M42.1283 28.9291C40.2243 34.0377 36.1739 38.2756 31.4896 38.2756C28.5717 38.2756 25.8997 36.6311 23.8394 34.1562C26.1142 31.6773 28.0309 28.2814 29.1304 24.5371C31.5675 18.6567 31.8196 14.3987 31.2071 11.3488C31.3005 11.3915 31.3947 11.4361 31.4896 11.4825C37.5672 8.5106 40.651 13.0938 42.1125 16.9718C42.6134 18.3008 42.9236 19.547 43.0986 20.3779C43.1586 20.752 43.2048 21.1315 43.2364 21.5157C43.27 21.9236 43.2871 22.3367 43.2871 22.7544C43.2871 24.8119 42.871 26.9367 42.1283 28.9291Z" fill="#FCCDC0"/>
<path fill-rule="evenodd" clip-rule="evenodd" d="M45.3057 19.1279C45.6889 19.1279 46.0632 19.4756 46.3661 20.4363C47.463 23.9146 45.0082 29.5462 42.1284 28.9291C42.8711 26.9367 43.2872 24.8119 43.2872 22.7544C43.2872 22.3367 43.2701 21.9235 43.2365 21.5157C43.2365 21.5157 43.2542 21.476 43.2872 21.4069C43.5101 20.9397 44.431 19.1279 45.3057 19.1279Z" fill="#FCCDC0"/>
<path fill-rule="evenodd" clip-rule="evenodd" d="M23.8393 34.1557C21.5674 36.6314 18.938 38.1924 16.4085 38.2719C11.2135 38.4354 5.90985 32.107 3.94659 24.7979C3.92328 24.7109 3.90042 24.6238 3.87793 24.5366C4.24402 20.6499 3.99387 18.2001 5.40892 14.7945C5.46372 14.6628 5.55699 14.5499 5.63391 14.4272C5.64447 14.4377 5.65503 14.4483 5.66567 14.4587C5.71451 14.5068 5.7639 14.5538 5.81383 14.6C8.67909 17.2486 13.3313 16.7901 17.8613 15.0668C17.7348 16.3125 17.6688 17.6632 17.6736 19.1275C17.2905 19.1275 16.9161 19.4752 16.6132 20.4359C15.5163 23.9141 17.9711 29.5458 20.8509 28.9287C21.5688 30.855 22.592 32.6575 23.8393 34.1557Z" fill="#FCCDC0"/>
<path fill-rule="evenodd" clip-rule="evenodd" d="M3.94693 24.7985C3.94693 24.7985 -4.06042 11.435 3.87827 8.78955C4.32128 10.5501 5.81417 14.6006 5.81417 14.6006C5.76423 14.5545 5.71485 14.5074 5.66601 14.4594C5.65536 14.449 5.64481 14.4384 5.63425 14.4279C5.55732 14.5506 5.46406 14.6634 5.40926 14.7952C3.99421 18.2007 4.24435 20.6506 3.87827 24.5373C3.90076 24.6245 3.92361 24.7116 3.94693 24.7985Z" fill="#607D87"/>
<path fill-rule="evenodd" clip-rule="evenodd" d="M17.8618 15.0678C18.5742 8.0536 21.2084 4.3647 23.9736 2.4375C25.377 3.13748 26.6702 4.01963 27.7746 5.09013C28.78 6.06463 30.5271 7.9618 31.2076 11.3493C28.179 9.96368 25.9117 10.4801 24.2278 11.8276C22.2866 13.0675 20.089 14.2205 17.8618 15.0678Z" fill="#607D87"/>
<path fill-rule="evenodd" clip-rule="evenodd" d="M23.9736 2.43704C27.6181 -0.103026 31.4902 0.416927 31.4902 0.416927C31.4902 0.416927 45.373 -1.4474 45.3062 19.128C44.4315 19.128 43.5107 20.9398 43.2877 21.407C43.2877 21.407 43.2332 21.0143 43.0992 20.378C42.9066 19.1791 42.5711 18.036 42.1132 16.9719C40.6517 13.0939 37.5678 8.51068 31.4902 11.4826C31.3953 11.4362 31.3011 11.3916 31.2077 11.3489C30.5272 7.96135 28.78 6.06418 27.7747 5.08968C26.6703 4.01917 25.377 3.13702 23.9736 2.43704Z" fill="#607D87"/>
<path fill-rule="evenodd" clip-rule="evenodd" d="M3.87852 8.78937C2.50625 0.722941 15.3298 -1.87449 23.9736 2.437C21.2084 4.3642 18.5742 8.05309 17.8619 15.0673C13.3319 16.7906 8.67969 17.2491 5.81443 14.6005C5.81443 14.6005 4.32154 10.5499 3.87852 8.78937Z" fill="#607D87"/>
<path fill-rule="evenodd" clip-rule="evenodd" d="M29.1308 24.5368C28.0312 28.2811 26.1145 31.677 23.8397 34.1559C22.5923 32.6577 21.5692 30.8552 20.8512 28.9289C20.1086 26.9364 19.6924 24.8116 19.6924 22.7542C19.6924 22.3365 19.7095 21.9233 19.7431 21.5154C19.7747 21.1312 19.8209 20.7517 19.8809 20.3776C20.0559 19.5468 20.3662 18.3005 20.867 16.9715C21.566 15.1166 22.6362 13.1005 24.2276 11.8268C24.4895 11.6596 24.7467 11.4907 24.9988 11.3208C27.1227 12.9178 28.6604 21.3842 29.1308 24.5368Z" fill="#FCCDC0"/>
<path fill-rule="evenodd" clip-rule="evenodd" d="M31.2073 11.3487C31.8199 14.3987 31.5677 18.6567 29.1307 24.5371C28.6603 21.3845 27.1226 12.9181 24.9987 11.3211C24.7467 11.491 24.4894 11.6599 24.2275 11.8271C25.9114 10.4795 28.1787 9.96311 31.2073 11.3487Z" fill="#607D87"/>
<path fill-rule="evenodd" clip-rule="evenodd" d="M17.6736 19.128C17.6688 17.6637 17.7347 16.313 17.8612 15.0673C20.0884 14.22 22.286 13.067 24.2272 11.8271C22.6358 13.1009 21.5657 15.117 20.8666 16.9719C20.4087 18.036 20.0732 19.1791 19.8806 20.378C19.7466 21.0142 19.692 21.4069 19.692 21.4069C19.4691 20.9398 18.5483 19.128 17.6736 19.128Z" fill="#607D87"/>
<path fill-rule="evenodd" clip-rule="evenodd" d="M17.6736 19.1279C17.2904 19.1279 16.9161 19.4756 16.6131 20.4363C15.5163 23.9146 17.9711 29.5462 20.8508 28.9291C20.1082 26.9367 19.692 24.8119 19.692 22.7544C19.692 22.3367 19.7092 21.9235 19.7428 21.5157C19.7428 21.5157 19.725 21.476 19.692 21.4069C19.4691 20.9397 18.5483 19.1279 17.6736 19.1279Z" fill="#FCCDC0"/>
<path fill-rule="evenodd" clip-rule="evenodd" d="M27.2453 1.25732C26.7579 1.67903 26.2755 2.29152 25.8151 3.06252C25.4555 2.82851 25.0853 2.60815 24.7061 2.40146C25.5705 1.87047 26.4362 1.50593 27.2453 1.25732Z" fill="#64476F"/>
<path fill-rule="evenodd" clip-rule="evenodd" d="M25.6895 32.4629C26.7372 34.3878 28.071 36.1619 29.7376 37.6948C27.7061 37.214 25.8551 35.9249 24.3281 34.167C24.7993 33.6359 25.2544 33.0662 25.6895 32.4629Z" fill="#D45E8C"/>
<path fill-rule="evenodd" clip-rule="evenodd" d="M22.629 14.2119C22.0508 19.8484 22.6141 26.318 25.3063 31.727C24.8444 32.3896 24.3574 33.0126 23.8508 33.5892C22.7513 32.1895 21.8452 30.543 21.194 28.7961L21.1937 28.7954C20.4672 26.846 20.0591 24.7673 20.0591 22.7543C20.0591 22.3472 20.0759 21.9444 20.1086 21.5468L20.1087 21.546C20.1394 21.1719 20.1843 20.8024 20.2428 20.4383C20.414 19.6269 20.7157 18.4174 21.2008 17.1268L21.2028 17.122C21.2081 17.1097 21.2127 17.0973 21.2165 17.0848C21.4974 16.3427 21.8389 15.575 22.2511 14.8418C22.371 14.6285 22.4968 14.418 22.629 14.2119Z" fill="#D45E8C"/>
<path fill-rule="evenodd" clip-rule="evenodd" d="M18.2041 15.3343C19.5921 14.7937 20.9658 14.1388 22.2713 13.4209C22.0354 13.7583 21.8166 14.11 21.6142 14.4701C21.1829 15.2373 20.8259 16.041 20.5326 16.8173C20.5319 16.8187 20.5313 16.8202 20.5306 16.8217C20.0606 17.9139 19.7161 19.0872 19.5185 20.3177L19.5167 20.3263C19.2118 19.8328 18.8119 19.2888 18.3931 19.0029C18.2772 18.9238 18.1594 18.8624 18.041 18.8203C18.0455 17.5753 18.102 16.4152 18.2041 15.3343Z" fill="#64476F"/>
<path fill-rule="evenodd" clip-rule="evenodd" d="M25.4523 3.71171C24.3548 5.80369 23.4166 8.79691 22.8865 12.2137C21.4366 13.0687 19.8777 13.8575 18.2939 14.4979C18.9317 9.22114 20.701 5.94498 22.7627 3.92271C23.1689 3.52439 23.5859 3.1752 24.007 2.86914C24.5049 3.12608 24.9879 3.40678 25.4523 3.71171Z" fill="#64476F"/>
<path fill-rule="evenodd" clip-rule="evenodd" d="M17.6663 19.502C17.6693 19.5021 17.6723 19.5021 17.6752 19.5021C17.6785 19.5021 17.6819 19.502 17.6852 19.502C17.7595 19.5041 17.8337 19.5348 17.9083 19.5768C18.0505 19.6569 18.1885 19.7819 18.3213 19.9269C18.811 20.4618 19.2159 21.2625 19.3561 21.5568C19.3597 21.5652 19.3637 21.5735 19.3679 21.5816L19.3694 21.5848C19.3403 21.9703 19.3253 22.3603 19.3253 22.7544C19.3253 24.6981 19.6882 26.7009 20.3428 28.601C19.4937 28.5695 18.7204 27.9164 18.1027 26.9965C16.9376 25.2612 16.3366 22.5378 16.9632 20.5507C17.0832 20.1703 17.2112 19.8975 17.3517 19.7152C17.443 19.5967 17.5309 19.5237 17.629 19.5061C17.6415 19.5038 17.6539 19.5025 17.6663 19.502Z" fill="#D45E8C"/>
<path fill-rule="evenodd" clip-rule="evenodd" d="M5.33036 16.0581C5.54893 24.4429 8.71509 33.5301 15.0807 37.7966C13.5056 37.508 11.9512 36.6365 10.5172 35.3633C7.75857 32.914 5.45217 28.9799 4.30297 24.7065C4.30177 24.7018 4.30049 24.6969 4.29911 24.6921C4.2825 24.6302 4.26616 24.5682 4.25 24.5062C4.56229 21.1383 4.40514 18.8593 5.33036 16.0581Z" fill="#D45E8C"/>
<path fill-rule="evenodd" clip-rule="evenodd" d="M3.6286 9.2793C4.04802 10.7707 4.9289 13.2407 5.29976 14.265C5.21788 14.3913 5.12773 14.5122 5.07082 14.6492C3.7763 17.7646 3.85148 20.088 3.60381 23.4121C2.72789 21.7315 1.23977 18.5323 0.836411 15.517C0.482442 12.8714 0.971077 10.358 3.6286 9.2793Z" fill="#64476F"/>
<path fill-rule="evenodd" clip-rule="evenodd" d="M8.76851 1.83398C6.88631 4.42926 5.7596 8.2192 5.42417 12.4209C4.98584 11.1668 4.47013 9.63094 4.23733 8.71099C3.68058 5.39749 5.68414 3.08283 8.76851 1.83398Z" fill="#64476F"/>
<path fill-rule="evenodd" clip-rule="evenodd" d="M3.60578 24.9478C3.30864 24.4405 0.675077 19.8524 0.108598 15.6185C-0.297878 12.5803 0.34828 9.73363 3.46891 8.53962C2.98083 4.764 5.46798 2.1457 9.20695 0.875061C13.4315 -0.560448 19.2576 -0.252237 23.9403 2.00938C27.415 -0.318576 31.0355 -0.00896262 31.4892 0.0408152C32.0177 -0.0171965 36.8396 -0.427489 40.7257 3.38407C43.3966 6.00367 45.6445 10.6367 45.6726 18.8257C45.7146 18.8428 45.7564 18.8631 45.7978 18.8866C46.1196 19.0692 46.4545 19.495 46.7154 20.3225C47.4051 22.5093 46.7651 25.5103 45.4828 27.42C44.6461 28.666 43.5367 29.4386 42.3648 29.3422C40.3616 34.4746 36.2264 38.6505 31.4895 38.6505C28.5954 38.6505 25.9258 37.0917 23.8299 34.7083C23.4545 35.1006 23.0702 35.4684 22.6791 35.8092C20.6901 37.5424 18.5192 38.5811 16.4197 38.6472C14.2324 38.716 12.0208 37.6923 10.0343 35.9285C7.18862 33.4019 4.79914 29.3537 3.60578 24.9478ZM23.2555 2.50528C18.817 0.481704 13.3961 0.240581 9.43929 1.58524C5.98057 2.76053 3.64103 5.16334 4.23716 8.71151C4.64318 10.3159 5.90961 13.7934 6.12588 14.3836C7.80154 15.8885 10.1028 16.2925 12.6155 16.0217C14.1991 15.8512 15.8658 15.4124 17.5204 14.7984C18.1444 9.05789 20.0557 5.53939 22.2532 3.38407C22.5817 3.06191 22.9168 2.76989 23.2555 2.50528ZM3.62846 9.27974C0.970938 10.3585 0.482303 12.8719 0.836272 15.5174C1.23963 18.5327 2.72775 21.732 3.60367 23.4125C3.85134 20.0884 3.77616 17.7651 5.07068 14.6497C5.12759 14.5127 5.21774 14.3917 5.29962 14.2655C4.92876 13.2412 4.04788 10.7711 3.62846 9.27974ZM44.9382 18.8209C44.9101 10.93 42.7913 6.44886 40.2165 3.92339C36.3658 0.14664 31.5374 0.788605 31.5374 0.788605C31.5056 0.792909 31.4733 0.792909 31.4414 0.788605C31.4414 0.788605 28.0639 0.339575 24.7057 2.40227C25.9231 3.06575 27.0478 3.86996 28.027 4.81901C29.0122 5.77406 30.6874 7.58898 31.454 10.7647C31.4771 10.8601 31.4993 10.9568 31.5206 11.0547C33.4832 10.1352 35.1451 9.98411 36.5463 10.3192C38.7158 10.838 40.2766 12.5344 41.365 14.4705C41.7963 15.2377 42.1534 16.0414 42.4467 16.8177C42.4473 16.8191 42.448 16.8206 42.4486 16.8221C42.9186 17.9143 43.2631 19.0876 43.4608 20.3181C43.461 20.3195 43.4613 20.3208 43.4616 20.3221C43.7189 19.9041 44.044 19.4516 44.3908 19.1539C44.5687 19.0012 44.7526 18.8874 44.9382 18.8209ZM42.6367 28.6018C43.4857 28.5702 44.2591 27.9171 44.8767 26.9973C46.0419 25.262 46.6429 22.5386 46.0163 20.5515C45.8963 20.1711 45.7683 19.8982 45.6278 19.716C45.5365 19.5975 45.4485 19.5244 45.3505 19.5068C45.338 19.5046 45.3256 19.5033 45.3131 19.5028C45.3102 19.5029 45.3072 19.5029 45.3042 19.5029C45.3009 19.5029 45.2976 19.5028 45.2943 19.5027C45.22 19.5049 45.1458 19.5356 45.0712 19.5776C44.929 19.6577 44.791 19.7827 44.6582 19.9277C44.1684 20.4625 43.7636 21.2633 43.6233 21.5575C43.6197 21.566 43.6158 21.5743 43.6116 21.5823C43.611 21.5835 43.6106 21.5845 43.6101 21.5855C43.6392 21.971 43.6541 22.3611 43.6541 22.7551C43.6541 24.6989 43.2913 26.7017 42.6367 28.6018ZM24.3279 34.1677C26.2839 36.4195 28.7714 37.902 31.4895 37.902C36.0355 37.902 39.937 33.7547 41.7849 28.7968C41.785 28.7967 41.7851 28.7965 41.7851 28.7962C42.5117 26.8468 42.9197 24.7681 42.9197 22.7551C42.9197 22.348 42.903 21.9452 42.8703 21.5476C42.8703 21.5473 42.8703 21.5471 42.8702 21.5468C42.8395 21.1727 42.7946 20.8032 42.7361 20.439C42.5649 19.6277 42.2632 18.4182 41.7781 17.1276C41.7775 17.126 41.7768 17.1244 41.7761 17.1228C41.7708 17.1105 41.7662 17.0981 41.7623 17.0856C41.4814 16.3435 41.14 15.5758 40.7278 14.8426C39.7402 13.0858 38.3471 11.5187 36.3786 11.0479C35.0696 10.7349 33.5135 10.9117 31.6638 11.813C32.1542 14.8682 31.806 19.0359 29.4763 24.6646C28.3946 28.3372 26.5373 31.6775 24.3279 34.1677ZM4.30252 24.7074C5.45173 28.9808 7.75812 32.9148 10.5167 35.3641C12.3494 36.9914 14.379 37.9625 16.397 37.899C18.3474 37.8376 20.3542 36.8504 22.2018 35.2403C22.5929 34.8996 22.9766 34.5309 23.351 34.1371C22.2307 32.7357 21.2981 31.0948 20.6141 29.3422C19.4422 29.4386 18.3327 28.666 17.4961 27.42C16.2138 25.5103 15.5738 22.5093 16.2635 20.3225C16.5522 19.4069 16.9385 18.9796 17.3063 18.8267C17.3101 17.6905 17.3568 16.6228 17.4413 15.6194C15.8369 16.1924 14.2266 16.6009 12.6927 16.7661C9.99677 17.0566 7.53432 16.5964 5.7173 15.0133C4.35962 18.3232 4.59976 20.7305 4.24956 24.5071C4.26571 24.5691 4.28205 24.631 4.29867 24.693C4.30004 24.6978 4.30133 24.7026 4.30252 24.7074ZM30.6863 10.7262C29.9441 7.87829 28.4234 6.23628 27.5209 5.36152C26.4941 4.36634 25.3009 3.53752 24.0067 2.86982C23.5856 3.17588 23.1686 3.52507 22.7624 3.92339C20.7007 5.94566 18.9314 9.22182 18.2936 14.4985C20.3017 13.6867 22.2699 12.6361 24.0263 11.5145C24.7292 10.9567 25.528 10.5355 26.4326 10.3192C27.6463 10.0289 29.0555 10.1035 30.6863 10.7262ZM21.194 28.7968C21.8452 30.5438 22.7513 32.1902 23.8508 33.59C25.9513 31.1992 27.7143 28.0113 28.7547 24.5108C28.4193 22.2849 27.5816 17.5892 26.3955 14.4182C25.9605 13.2554 25.492 12.2997 24.9707 11.7879C24.792 11.9064 24.611 12.0242 24.4278 12.1412C23.5416 12.8571 22.8273 13.8176 22.2511 14.8426C21.8389 15.5758 21.4975 16.3435 21.2166 17.0856C21.2127 17.0981 21.2081 17.1105 21.2028 17.1228C21.2021 17.1244 21.2014 17.126 21.2008 17.1276C20.7157 18.4182 20.414 19.6277 20.2428 20.439C20.1843 20.8032 20.1394 21.1727 20.1087 21.5468C20.1086 21.5471 20.1086 21.5473 20.1086 21.5476C20.0759 21.9452 20.0591 22.348 20.0591 22.7551C20.0591 24.7681 20.4672 26.8468 21.1937 28.7962C21.1938 28.7965 21.1939 28.7967 21.194 28.7968ZM25.6118 11.3942C26.1411 11.9959 26.6401 12.9711 27.0816 14.1515C28.0957 16.8627 28.8616 20.6711 29.2816 23.1555C31.1788 18.1213 31.3965 14.3763 30.8837 11.6135C29.2219 10.8869 27.8062 10.7595 26.6003 11.0479C26.2533 11.131 25.9241 11.248 25.6118 11.3942ZM17.6658 19.5028C17.6533 19.5033 17.6409 19.5046 17.6284 19.5068C17.5304 19.5244 17.4424 19.5975 17.3511 19.716C17.2106 19.8982 17.0826 20.1711 16.9626 20.5515C16.336 22.5386 16.937 25.262 18.1022 26.9973C18.7198 27.9171 19.4932 28.5702 20.3422 28.6018C19.6876 26.7017 19.3247 24.6989 19.3247 22.7551C19.3247 22.3611 19.3397 21.971 19.3688 21.5855C19.3683 21.5845 19.3679 21.5835 19.3673 21.5823C19.3631 21.5743 19.3591 21.566 19.3556 21.5575C19.2153 21.2633 18.8105 20.4625 18.3207 19.9277C18.1879 19.7827 18.0499 19.6577 17.9077 19.5776C17.8331 19.5356 17.7589 19.5049 17.6846 19.5027C17.6813 19.5028 17.678 19.5029 17.6747 19.5029C17.6717 19.5029 17.6687 19.5029 17.6658 19.5028ZM18.2038 15.3347C18.1016 16.4156 18.0452 17.5757 18.0407 18.8207C18.1591 18.8628 18.2769 18.9242 18.3928 19.0033C18.8116 19.2892 19.2114 19.8332 19.5164 20.3268C19.5169 20.3239 19.5176 20.3211 19.5181 20.3181C19.7158 19.0876 20.0603 17.9143 20.5303 16.8221C20.5309 16.8206 20.5316 16.8191 20.5322 16.8177C20.8255 16.0414 21.1826 15.2377 21.6139 14.4705C21.8163 14.1104 22.035 13.7587 22.2709 13.4213C20.9654 14.1392 19.5917 14.7941 18.2038 15.3347Z" fill="#303E64"/>
<path fill-rule="evenodd" clip-rule="evenodd" d="M32.2684 12.361C32.1706 12.3973 32.0624 12.3456 32.027 12.246C31.9914 12.1463 32.0421 12.036 32.1399 11.9999C34.0638 11.2885 36.1458 11.0623 38.0007 12.2606C39.8307 13.443 41.4528 16.0331 42.4523 20.9978C42.4733 21.1016 42.4075 21.2032 42.3056 21.2246C42.2037 21.2459 42.104 21.1788 42.083 21.075C41.1138 16.2606 39.5735 13.7317 37.7988 12.5851C36.0489 11.4546 34.0836 11.6899 32.2684 12.361Z" fill="white"/>
<path fill-rule="evenodd" clip-rule="evenodd" d="M28.3807 1.51059C28.2776 1.52472 28.1826 1.4509 28.1687 1.34582C28.1548 1.24074 28.2273 1.1439 28.3303 1.12977C31.7778 0.65651 35.6136 0.774873 38.7251 3.04182C41.8275 5.30194 44.2233 9.70605 44.7658 17.8389C44.7729 17.9447 44.6943 18.0364 44.5905 18.0436C44.4868 18.0508 44.3967 17.9708 44.3897 17.865C43.8582 9.89749 41.5451 5.5686 38.5059 3.35443C35.476 1.14699 31.7377 1.04968 28.3807 1.51059Z" fill="white"/>
<path fill-rule="evenodd" clip-rule="evenodd" d="M9.77074 2.00902C9.66995 2.03522 9.56723 1.97309 9.54153 1.87036C9.51582 1.76762 9.57678 1.66292 9.67757 1.63672C14.8191 0.299548 19.2202 1.18282 22.521 2.41211C22.6186 2.44851 22.669 2.55892 22.6333 2.65847C22.5976 2.75812 22.4893 2.8094 22.3916 2.773C19.148 1.56505 14.8232 0.695057 9.77074 2.00902Z" fill="white"/>
</svg>
