<svg width="29" height="29" viewBox="0 0 29 29" fill="none" xmlns="http://www.w3.org/2000/svg">
<g clip-path="url(#clip0_411_3250)">
<path d="M14.8991 11.4802L12.6615 20.4304C12.6301 20.56 12.5558 20.6753 12.4508 20.7576C12.3458 20.8398 12.2162 20.8843 12.0828 20.8839H4.77344C3.50796 20.8822 2.2948 20.3787 1.39997 19.4839C0.505147 18.5891 0.00169041 17.3759 1.22133e-06 16.1104C-0.00029102 15.7096 0.0518638 15.3104 0.155138 14.923C0.393404 13.9937 0.906333 13.1578 1.62696 12.5245C2.34759 11.8911 3.24243 11.4898 4.19466 11.3728C4.31731 9.5303 5.00457 7.7703 6.16293 6.33222C7.32129 4.89415 8.89453 3.8478 10.6686 3.33553C10.7306 3.31777 10.7954 3.3117 10.8596 3.31763C10.9349 3.31867 11.0092 3.33508 11.0779 3.36586C11.1467 3.39664 11.2084 3.44114 11.2593 3.49663C11.3357 3.57459 11.3889 3.67217 11.4132 3.77856C11.4374 3.88494 11.4316 3.99596 11.3966 4.09928L10.4061 7.07075L9.97649 8.35361L9.1829 10.7403H14.3203C14.375 10.7395 14.4294 10.7475 14.4814 10.7642C14.6046 10.7953 14.7138 10.8667 14.7917 10.9671C14.8466 11.0392 14.8848 11.1227 14.9034 11.2115C14.922 11.3003 14.9205 11.3921 14.8991 11.4802Z" fill="#4FC3F7"/>
<path d="M14.8992 9.09349L14.4816 10.7642L12.6617 18.0437C12.6302 18.1733 12.556 18.2886 12.451 18.3708C12.346 18.4531 12.2163 18.4976 12.0829 18.4972H4.77357C3.71709 18.4953 2.69097 18.1436 1.85546 17.497C1.01996 16.8504 0.422106 15.9453 0.155273 14.923C0.39354 13.9937 0.906469 13.1578 1.6271 12.5245C2.34772 11.8911 3.24256 11.4898 4.1948 11.3728C4.31745 9.5303 5.0047 7.7703 6.16306 6.33222C7.32143 4.89415 8.89466 3.8478 10.6688 3.33553C10.7308 3.31777 10.7955 3.3117 10.8597 3.31763L10.4062 4.68403L9.18304 8.35361H14.3204C14.411 8.35334 14.5005 8.37361 14.5822 8.41288C14.6638 8.45215 14.7355 8.5094 14.7918 8.58035C14.8468 8.6525 14.8849 8.73601 14.9035 8.82478C14.9221 8.91355 14.9206 9.00535 14.8992 9.09349Z" fill="#81D4FA"/>
<path d="M28.6405 14.6185C28.6387 16.2795 27.978 17.872 26.8035 19.0466C25.6289 20.2211 24.0364 20.8818 22.3754 20.8836H15.621C15.5113 20.8837 15.4038 20.8536 15.3101 20.7967C15.2165 20.7398 15.1402 20.6583 15.0897 20.561C15.0392 20.4637 15.0164 20.3544 15.0238 20.245C15.0312 20.1357 15.0685 20.0305 15.1317 19.9409L16.152 18.4969L23.0496 8.72329C23.1174 8.62917 23.2108 8.55659 23.3188 8.51426C23.4267 8.47192 23.5446 8.46163 23.6582 8.48462C24.8661 8.74154 25.9717 9.34805 26.8375 10.2286C27.7032 11.1092 28.2908 12.225 28.5271 13.4371C28.6015 13.8265 28.6394 14.222 28.6405 14.6185Z" fill="#4FC3F7"/>
<path d="M28.5275 13.4371C28.2444 14.8613 27.4769 16.1435 26.3555 17.0659C25.234 17.9883 23.8278 18.494 22.3757 18.4969H16.1523L23.05 8.72329C23.1177 8.62917 23.2111 8.55659 23.3191 8.51426C23.427 8.47192 23.5449 8.46163 23.6586 8.48462C24.8664 8.74154 25.9721 9.34805 26.8378 10.2286C27.7035 11.1092 28.2911 12.225 28.5275 13.4371Z" fill="#81D4FA"/>
<path d="M24.9527 8.10291L13.1802 24.7861L10.6324 28.39C10.5764 28.4674 10.5029 28.5305 10.4178 28.5741C10.3328 28.6176 10.2386 28.6404 10.1431 28.6406C10.0568 28.64 9.97146 28.6218 9.89247 28.5869C9.76681 28.5282 9.66541 28.4277 9.60556 28.3026C9.54572 28.1774 9.53113 28.0354 9.5643 27.9007L10.7517 23.1571L13.5561 11.9336H8.35304C8.25822 11.934 8.16471 11.9114 8.08053 11.8678C7.99636 11.8241 7.92402 11.7607 7.86973 11.683C7.81406 11.6066 7.77744 11.518 7.76292 11.4246C7.74839 11.3312 7.75637 11.2357 7.7862 11.146L11.3663 0.405742C11.4073 0.28789 11.4839 0.18563 11.5854 0.112988C11.6868 0.0403458 11.8083 0.000878877 11.9331 0L21.48 0C21.5783 0.000238591 21.6751 0.0248985 21.7615 0.0717647C21.8479 0.118631 21.9214 0.186235 21.9752 0.268506C22.0304 0.3489 22.0643 0.441981 22.0737 0.539034C22.0831 0.636087 22.0677 0.733936 22.0289 0.823418L19.3916 7.16016H24.4634C24.5728 7.1605 24.6801 7.19068 24.7737 7.24745C24.8673 7.30423 24.9436 7.38544 24.9944 7.48236C25.0437 7.58005 25.0658 7.68919 25.0585 7.79835C25.0511 7.90752 25.0146 8.01271 24.9527 8.10291Z" fill="#FFA000"/>
<path d="M21.3726 8.10291L10.7517 23.1571L13.5561 11.9336H8.35304C8.25822 11.934 8.16471 11.9114 8.08053 11.8678C7.99636 11.8241 7.92402 11.7607 7.86973 11.683C7.81406 11.6066 7.77744 11.518 7.76292 11.4246C7.74839 11.3312 7.75637 11.2357 7.7862 11.146L11.3663 0.405742C11.4073 0.28789 11.4839 0.18563 11.5854 0.112988C11.6868 0.0403459 11.8083 0.000878877 11.9331 0L17.8999 0C17.9982 0.000238591 18.095 0.0248985 18.1814 0.0717647C18.2679 0.118631 18.3413 0.186236 18.3952 0.268506C18.4503 0.3489 18.4842 0.441981 18.4936 0.539034C18.503 0.636087 18.4876 0.733936 18.4489 0.823418L15.8115 7.16016H20.8833C20.9928 7.1605 21.1 7.19068 21.1936 7.24745C21.2872 7.30423 21.3635 7.38544 21.4144 7.48236C21.4636 7.58005 21.4858 7.68919 21.4784 7.79836C21.4711 7.90752 21.4345 8.01271 21.3726 8.10291Z" fill="#FFCA28"/>
<path d="M24.5061 8.73211L24.9517 8.10088C25.0148 8.01153 25.0521 7.90656 25.0595 7.79746C25.067 7.68835 25.0443 7.57929 24.9939 7.4822C24.9436 7.38511 24.8675 7.30372 24.7741 7.24693C24.6806 7.19013 24.5734 7.16012 24.464 7.16016H19.3922L22.0313 0.826282C22.0691 0.735611 22.0839 0.637009 22.0744 0.539231C22.065 0.441452 22.0315 0.347521 21.9771 0.265776C21.9226 0.184031 21.8488 0.117001 21.7622 0.0706376C21.6755 0.0242737 21.5788 9.82283e-06 21.4806 1.6404e-09H11.9337C11.8085 -9.28101e-06 11.6865 0.0393779 11.5849 0.112583C11.4833 0.185789 11.4073 0.289102 11.3677 0.40789L10.3585 3.4355C8.65743 3.99392 7.16193 5.0477 6.06375 6.46172C4.96557 7.87573 4.31477 9.58553 4.19479 11.3719C2.98753 11.5188 1.88188 12.121 1.10357 13.0555C0.325267 13.99 -0.0669987 15.1863 0.00686573 16.4003C0.0807302 17.6142 0.615154 18.7541 1.50102 19.5874C2.3869 20.4206 3.5574 20.8843 4.77357 20.8838H11.3187L9.56491 27.8991C9.53113 28.0342 9.54564 28.1768 9.60594 28.3023C9.66624 28.4278 9.76853 28.5283 9.89509 28.5863C10.0217 28.6443 10.1645 28.6563 10.299 28.62C10.4334 28.5838 10.5509 28.5017 10.6312 28.388L15.9283 20.8838H22.3756C23.8494 20.8845 25.2762 20.3653 26.405 19.4177C27.5337 18.4701 28.292 17.1547 28.5466 15.7031C28.8011 14.2515 28.5354 12.7566 27.7964 11.4815C27.0573 10.2064 25.8922 9.23283 24.5061 8.73211ZM4.77357 19.6904C3.82407 19.6904 2.91347 19.3132 2.24207 18.6418C1.57068 17.9705 1.19349 17.0598 1.19349 16.1104C1.19349 15.1609 1.57068 14.2502 2.24207 13.5789C2.91347 12.9075 3.82407 12.5303 4.77357 12.5303C4.93182 12.5303 5.08359 12.4674 5.19549 12.3555C5.30738 12.2436 5.37025 12.0918 5.37025 11.9336C5.37567 10.4551 5.80167 9.00866 6.59849 7.76325C7.39531 6.51783 8.53005 5.52485 9.87017 4.90029L7.78776 11.1481C7.75793 11.2378 7.74981 11.3333 7.76409 11.4267C7.77836 11.5202 7.81462 11.6089 7.86987 11.6856C7.92511 11.7622 7.99778 11.8247 8.08189 11.8678C8.16599 11.911 8.25913 11.9335 8.35365 11.9336H13.5562L11.617 19.6904H4.77357ZM12.6617 20.4324L14.8992 11.4819C14.9213 11.3939 14.923 11.3021 14.9042 11.2133C14.8854 11.1246 14.8466 11.0413 14.7908 10.9698C14.735 10.8983 14.6637 10.8405 14.5822 10.8007C14.5006 10.7609 14.4111 10.7402 14.3204 10.7402H9.18136L11.3962 4.09662V4.09507L12.3638 1.19336H20.5856L17.9465 7.52723C17.9087 7.6179 17.8939 7.71651 17.9034 7.81428C17.9128 7.91206 17.9463 8.00599 18.0007 8.08774C18.0552 8.16948 18.129 8.23651 18.2156 8.28288C18.3023 8.32924 18.399 8.35351 18.4972 8.35352H23.3124L23.0511 8.72346L23.049 8.72567L15.1311 19.9428L11.4961 25.0925L12.6617 20.4324ZM22.3756 19.6904H16.7707L23.7898 9.74718C24.9627 10.0878 25.9734 10.8403 26.636 11.8664C27.2987 12.8924 27.5688 14.1231 27.3968 15.3324C27.2249 16.5416 26.6223 17.6482 25.6999 18.4488C24.7774 19.2494 23.597 19.6903 22.3756 19.6904Z" fill="black"/>
</g>
<defs>
<clipPath id="clip0_411_3250">
<rect width="28.6406" height="28.6406" fill="white"/>
</clipPath>
</defs>
</svg>
