<svg width="35" height="35" viewBox="0 0 35 35" fill="none" xmlns="http://www.w3.org/2000/svg">
<g clip-path="url(#clip0_411_3095)">
<path d="M7.98456 13.1799C7.8205 11.9221 7.60175 10.6096 7.383 9.35178C7.16425 8.09397 7.21894 8.14866 7.21894 8.03928C7.00019 5.57834 8.36738 3.50022 10.4455 2.29709C12.8431 0.95676 15.5809 0.348361 18.3205 0.547095C21.6018 0.711157 25.7033 1.91428 27.2346 5.25022C27.677 6.2643 27.8285 7.3815 27.6721 8.47678C27.3986 10.0627 27.1799 11.594 26.9064 13.1799H27.2346C28.9846 13.2346 29.6955 14.8205 29.3674 16.4065C29.258 17.008 29.0939 17.6096 28.9846 18.2112C28.6018 19.633 27.4533 21.0549 25.8127 20.6721L25.3205 20.508H25.2658C25.1564 20.5627 25.1018 20.6174 25.1018 20.7268C24.7736 22.8049 24.4455 24.8283 24.1721 26.8518L25.4299 27.8908C25.9768 28.2737 26.1955 28.6018 25.5393 29.0393C23.1877 30.7893 20.7814 32.4299 18.3752 34.0705C17.7736 34.508 17.6643 34.6174 17.0627 34.1799L9.46113 29.0393C9.35171 29.0033 9.25645 28.9337 9.18891 28.8404C9.12137 28.7472 9.08501 28.6349 9.08501 28.5198C9.08501 28.4046 9.12137 28.2923 9.18891 28.1991C9.25645 28.1058 9.35171 28.0362 9.46113 28.0002L10.883 26.9612C10.6096 25.0471 10.2814 23.0783 10.008 21.1643C9.95331 20.8908 9.95331 20.508 9.5705 20.6721C7.8205 21.383 6.34394 19.8518 6.01581 18.2658C5.90644 17.6643 5.74238 17.0627 5.633 16.4065C5.25019 14.7658 6.17988 13.2346 7.98456 13.2893V13.1799ZM13.2893 5.85178C14.0549 5.90647 14.6564 5.74241 15.258 6.34397C15.6169 6.7363 16.0207 7.08505 16.4611 7.38303C17.2814 7.92991 18.4299 7.92991 18.9768 7.10959L19.1955 6.67209C19.6877 5.68772 20.7268 5.85178 21.6018 5.85178H21.6564L23.0783 2.57053C21.7517 2.03093 20.3498 1.69891 18.9221 1.58616C16.133 1.31272 13.0705 1.75022 10.6643 3.22678L13.2346 5.85178H13.2893ZM23.6799 5.90647C24.0968 5.99334 24.4793 6.20003 24.7805 6.50118C25.0816 6.80233 25.2883 7.18484 25.3752 7.60178C25.4395 8.01778 25.4578 8.43959 25.4299 8.8596V13.0158C25.4336 13.1274 25.4656 13.2361 25.523 13.3318C25.5805 13.4275 25.6613 13.507 25.758 13.5627H25.8127C25.8568 13.5439 25.8952 13.5137 25.924 13.4753C25.9528 13.4369 25.971 13.3916 25.9768 13.344C26.1408 12.469 26.3596 10.8283 26.7424 8.42209C26.7844 8.02248 26.8026 7.62074 26.7971 7.21897C26.7077 6.32972 26.4018 5.47592 25.906 4.73229C25.4102 3.98865 24.7398 3.37786 23.9533 2.95334H23.8439L22.6408 5.79709H23.6799V5.90647ZM12.0314 5.90647L9.95331 3.77366C9.95331 3.71897 9.89863 3.71897 9.89863 3.77366C9.25184 4.30021 8.75122 4.98414 8.44478 5.75982C8.13833 6.5355 8.03636 7.37692 8.14863 8.20334C8.42206 9.89866 8.64081 11.594 8.91425 13.2893C9.02363 13.8362 9.51581 13.4533 9.51581 13.0705V8.75022C9.47505 8.30969 9.51207 7.86543 9.62519 7.43772C9.78628 6.94292 10.1144 6.51955 10.5535 6.24018C10.9925 5.96081 11.515 5.84283 12.0314 5.90647ZM20.6721 20.1252C20.7172 20.0642 20.7745 20.0132 20.8404 19.9756C20.9064 19.9379 20.9794 19.9144 21.0549 19.9065C22.1297 19.9612 23.2066 19.9612 24.2814 19.9065H24.3361L24.5002 18.758H19.1408C19.1263 18.758 19.1124 18.7638 19.1021 18.774C19.0919 18.7843 19.0861 18.7982 19.0861 18.8127L19.7424 19.9612C19.6877 20.0705 19.6877 20.1799 19.633 20.2346C19.4442 20.5143 19.1948 20.7479 18.9032 20.9178C18.6116 21.0877 18.2854 21.1896 17.949 21.2159C17.6125 21.2421 17.2745 21.1921 16.9601 21.0696C16.6456 20.947 16.3629 20.7551 16.133 20.508C15.9143 20.2893 15.7502 20.0705 15.9143 19.7971C16.0783 19.5237 16.4064 18.7033 16.5705 18.2658C16.5913 18.1263 16.6479 17.9944 16.7346 17.883C16.783 17.8424 16.8396 17.8127 16.9006 17.796C16.9616 17.7793 17.0255 17.7761 17.0879 17.7865C17.1503 17.7969 17.2097 17.8207 17.2619 17.8562C17.3142 17.8918 17.3582 17.9382 17.3908 17.9924C17.5549 18.3752 17.0627 19.5783 16.8439 19.9612C17.0946 20.1847 17.4215 20.3036 17.7572 20.2934C18.0929 20.2833 18.4119 20.1448 18.6486 19.9065C18.6486 19.9065 18.7033 19.8518 18.6486 19.8518L17.9924 18.594C17.7568 18.1203 17.6801 17.5834 17.7736 17.0627C17.7565 16.9146 17.7753 16.7646 17.8283 16.6252C17.873 16.5716 17.9299 16.5295 17.9942 16.5023C18.0585 16.4752 18.1283 16.4638 18.1979 16.4692C18.2675 16.4745 18.3348 16.4965 18.3941 16.5331C18.4535 16.5698 18.5033 16.6201 18.5393 16.6799C18.5877 16.8013 18.6065 16.9326 18.5939 17.0627C18.5767 17.3766 18.6137 17.6911 18.7033 17.9924C18.7033 18.0471 18.7033 18.0471 18.758 18.0471H23.5158L24.2814 17.9377C24.5472 17.8155 24.7858 17.6412 24.9831 17.4252C25.1804 17.2091 25.3323 16.9557 25.4299 16.6799C25.574 16.2361 25.6044 15.7633 25.5184 15.3047C25.4324 14.8461 25.2328 14.4164 24.9377 14.0549C24.7736 13.8362 24.5549 13.6721 24.5549 13.344V11.758H16.0783C15.6408 11.758 15.4221 11.5393 15.6408 11.1018L15.8596 10.9924H24.5549V9.89866H14.4924V12.9065C17.7189 13.2346 17.6643 17.6096 14.4924 18.0471V19.8518C14.4974 19.911 14.4903 19.9707 14.4715 20.0271C14.4527 20.0835 14.4226 20.1355 14.383 20.1799C14.3472 20.2254 14.3015 20.2622 14.2494 20.2875C14.1973 20.3128 14.1401 20.3259 14.0822 20.3259C14.0243 20.3259 13.9671 20.3128 13.915 20.2875C13.8629 20.2622 13.8173 20.2254 13.7814 20.1799C13.7295 20.0989 13.71 20.0013 13.7268 19.9065V18.1565C13.2069 18.1593 12.6975 18.0109 12.2606 17.7293C11.8236 17.4477 11.478 17.0451 11.2658 16.5705C11.1216 16.2638 11.0423 15.9306 11.0329 15.5919C11.0235 15.2531 11.0842 14.916 11.2111 14.6018C11.4208 14.1211 11.7643 13.7109 12.2006 13.42C12.637 13.1291 13.1477 12.9698 13.6721 12.9612H13.7268V9.29709C13.7149 9.13107 13.7334 8.96427 13.7814 8.80491C13.8242 8.72029 13.8969 8.65457 13.9854 8.62048C14.0739 8.5864 14.1719 8.58638 14.2604 8.62042C14.349 8.65446 14.4217 8.72015 14.4645 8.80475C14.5074 8.88935 14.5173 8.98685 14.4924 9.07834H24.5549C24.6026 8.58352 24.5656 8.08418 24.4455 7.60178C24.3519 7.34797 24.179 7.1311 23.9524 6.98333C23.7259 6.83556 23.4577 6.76477 23.1877 6.78147H20.508C20.0158 6.83616 20.0158 7.32834 19.7424 7.65647C19.5537 7.93189 19.3109 8.16604 19.0289 8.34468C18.7468 8.52331 18.4314 8.64268 18.1018 8.69553C16.6799 8.91428 15.6408 7.98459 14.6564 7.10959C14.5746 7.01771 14.4731 6.94542 14.3595 6.89809C14.2459 6.85076 14.1231 6.82959 14.0002 6.83616H12.6877V8.64084C12.6954 8.70992 12.6884 8.77985 12.6672 8.84603C12.6459 8.91221 12.6109 8.97313 12.5644 9.0248C12.5179 9.07646 12.461 9.11769 12.3974 9.14577C12.3338 9.17385 12.265 9.18815 12.1955 9.18772C11.5939 9.18772 11.0471 9.24241 10.4455 9.18772C10.431 9.18772 10.4171 9.19348 10.4068 9.20374C10.3966 9.21399 10.3908 9.2279 10.3908 9.24241V13.344C10.3908 13.7815 10.008 14.1096 9.84394 14.4377C9.60557 14.8421 9.47533 15.3011 9.46575 15.7704C9.45617 16.2397 9.56758 16.7036 9.78925 17.1174C9.95331 17.4455 10.3908 17.719 10.4455 18.1018C10.883 20.8908 11.3205 23.6252 11.7033 26.3596C11.8127 26.8518 12.5236 27.2346 12.9064 27.4533C13.2893 27.6721 12.9611 27.4533 12.9611 27.4533C12.9892 27.3089 12.9892 27.1603 12.9611 27.0158V24.9924C13.0158 24.3908 13.7268 24.4455 13.7268 24.9377V27.8362C13.7268 27.8908 13.7268 27.8908 13.7814 27.8908C14.2502 28.2501 14.7652 28.5444 15.3127 28.7658C16.2769 29.1874 17.3348 29.3486 18.3808 29.2335C19.4268 29.1183 20.4242 28.7308 21.2736 28.1096V26.5237C21.2736 26.0862 21.7658 25.9221 21.9299 26.3049C22.0058 26.6828 22.0243 27.07 21.9846 27.4533H22.0392C22.4221 27.1799 23.1877 26.8518 23.2424 26.3596C23.2971 25.8674 23.6252 23.9533 23.7893 22.7502H22.8596C22.4768 22.7502 22.3127 22.5862 22.3127 22.2033V20.7268H21.2736C20.8908 20.6721 20.5627 20.6174 20.6721 20.1252ZM11.8674 6.78147C11.6589 6.76187 11.4488 6.79041 11.2531 6.86489C11.0574 6.93936 10.8814 7.05779 10.7388 7.21103C10.5961 7.36427 10.4905 7.54823 10.4302 7.74872C10.3699 7.94921 10.3564 8.16088 10.3908 8.36741H11.9221V6.78147H11.8674ZM12.7971 14.0002C12.4654 14.1813 12.2013 14.4649 12.0442 14.8085C11.8871 15.1522 11.8455 15.5374 11.9255 15.9067C12.0055 16.276 12.2029 16.6095 12.4881 16.8573C12.7734 17.1051 13.1312 17.2539 13.508 17.2815H14.3283C14.5581 17.303 14.7899 17.2791 15.0105 17.211C15.2311 17.143 15.4361 17.0322 15.6138 16.8849C15.7915 16.7376 15.9385 16.5568 16.0464 16.3527C16.1542 16.1487 16.2208 15.9253 16.2424 15.6955C16.2639 15.4657 16.24 15.2339 16.1719 15.0133C16.1039 14.7928 15.9931 14.5878 15.8458 14.41C15.6986 14.2323 15.5177 14.0853 15.3136 13.9775C15.1096 13.8696 14.8863 13.803 14.6564 13.7815C14.0282 13.6869 13.3862 13.7625 12.7971 14.0002ZM7.76581 19.5237C8.0086 19.7505 8.32571 19.8812 8.65785 19.8913C8.98998 19.9013 9.31442 19.7901 9.5705 19.5783C9.62519 19.5783 9.67988 19.469 9.67988 19.469H9.73456L9.5705 18.4299H9.51581C9.27329 18.5996 8.98223 18.6861 8.68638 18.6762C8.39053 18.6663 8.10587 18.5607 7.87519 18.3752C7.49803 18.0151 7.25465 17.5373 7.18508 17.0205C7.11551 16.5036 7.22388 15.9785 7.49238 15.5315C7.8205 15.094 8.47675 15.3674 8.20331 15.8596C8.0796 16.0522 8.00065 16.2701 7.97225 16.4972C7.94386 16.7244 7.96676 16.955 8.03925 17.1721C8.14863 17.6643 8.53144 18.1018 9.07831 17.7737C9.09282 17.7737 9.10673 17.7679 9.11698 17.7576C9.12724 17.7474 9.133 17.7335 9.133 17.719C8.83903 17.2507 8.65655 16.7212 8.59966 16.1712C8.54277 15.6213 8.61298 15.0656 8.80488 14.5471C7.92988 14.0002 6.67206 14.219 6.45331 15.3674C6.44756 15.6419 6.46586 15.9164 6.508 16.1877C6.56269 16.6252 6.67206 17.1174 6.78144 17.6096C6.89081 18.1018 7.10956 19.0315 7.76581 19.5237ZM26.7424 15.6408C26.7424 15.1487 27.2892 15.1487 27.508 15.4768C27.7544 15.9006 27.8655 16.3895 27.8264 16.8782C27.7873 17.3669 27.5999 17.8319 27.2893 18.2112C27.0494 18.4352 26.7418 18.5729 26.415 18.6026C26.0882 18.6323 25.7608 18.5523 25.4846 18.3752C25.4846 18.3205 25.4299 18.3752 25.4299 18.3752L25.3205 19.3596C25.2658 19.4143 25.3205 19.469 25.3205 19.5237C25.4943 19.6738 25.6997 19.7829 25.9215 19.8429C26.1432 19.9029 26.3756 19.9122 26.6015 19.8702C26.8273 19.8282 27.0408 19.7359 27.2261 19.6002C27.4114 19.4645 27.5638 19.2888 27.6721 19.0862C27.8735 18.7463 28.021 18.3774 28.1096 17.9924C28.2736 17.3362 28.383 16.7346 28.4924 16.0783C28.6123 15.7754 28.6287 15.4413 28.539 15.1281C28.4493 14.8149 28.2585 14.5402 27.9964 14.3467C27.7343 14.1533 27.4155 14.0519 27.0898 14.0585C26.764 14.065 26.4496 14.1791 26.1955 14.383C26.4091 14.9134 26.4956 15.4863 26.4481 16.0561C26.4006 16.6259 26.2205 17.1766 25.9221 17.6643C26.0168 17.7181 26.1226 17.7495 26.2314 17.756C26.3402 17.7624 26.4489 17.7438 26.5494 17.7015C26.6498 17.6592 26.7392 17.5944 26.8105 17.5121C26.8819 17.4298 26.9335 17.3322 26.9611 17.2268C27.0581 16.9649 27.0889 16.683 27.0507 16.4064C27.0126 16.1297 26.9067 15.8667 26.7424 15.6408ZM24.1721 20.7268H23.0783C23.0711 20.7268 23.064 20.7282 23.0574 20.7309C23.0508 20.7337 23.0447 20.7377 23.0396 20.7428C23.0346 20.7479 23.0305 20.7539 23.0278 20.7605C23.025 20.7672 23.0236 20.7743 23.0236 20.7815V21.9846H24.008L24.1721 20.7268ZM10.6096 28.7658L12.5783 30.0783H12.633L13.3986 28.8205L11.5393 27.6721H11.4846L10.3361 28.5471C10.2814 28.5471 10.2814 28.5471 10.3361 28.6018L10.6096 28.7658ZM21.9846 28.7112C21.8752 28.7112 21.8752 28.7112 21.8205 28.8205H21.7111C21.6564 28.8752 21.6564 28.8752 21.7111 28.8752L22.4221 30.0783C22.4221 30.133 22.4767 30.133 22.4767 30.0783L24.7189 28.5471L23.5705 27.7268H23.5158L23.3518 27.8362C22.8768 28.0967 22.4201 28.389 21.9846 28.7112ZM13.2893 30.5158L17.5002 33.3596H17.7189L20.9455 31.1721C21.0002 31.1721 21.0002 31.1174 20.9455 31.1174C20.8908 31.1174 19.4689 31.1721 18.7033 31.1174C17.9377 31.0627 18.0471 30.7893 18.0471 30.1877C17.0207 30.243 15.9945 30.0751 15.0393 29.6955C14.6946 29.5668 14.3646 29.4018 14.0549 29.2033H14.0002L13.2346 30.4612L13.2893 30.5158ZM21.6564 30.4065C21.6564 30.4065 21.7111 30.4065 21.6564 30.3518L21.0549 29.3127H20.9455C20.3067 29.6955 19.6018 29.9552 18.8674 30.0783C18.8127 30.0783 18.8127 30.0783 18.8127 30.133V30.3518C18.8127 30.4065 18.8127 30.4065 18.8674 30.4065H21.6564Z" fill="#290663"/>
<path d="M13.2344 5.85159L10.6641 3.22659C13.0703 1.75003 16.1328 1.31253 18.9219 1.58596C20.3496 1.69872 21.7515 2.03073 23.0781 2.57034L21.6562 5.85159H21.6016C20.7266 5.85159 19.6875 5.68753 19.1953 6.6719L18.9766 7.1094C18.4297 7.92971 17.2812 7.92971 16.4609 7.38284C16.0205 7.08485 15.6167 6.7361 15.2578 6.34378C14.6562 5.74221 14.0547 5.90628 13.2891 5.85159H13.2344ZM21.2188 3.44534C21.1992 3.39303 21.1666 3.34657 21.1241 3.31037C21.0816 3.27418 21.0305 3.24943 20.9757 3.23848C20.921 3.22752 20.8643 3.23073 20.8112 3.24779C20.758 3.26485 20.71 3.2952 20.6719 3.33596L19.4687 4.10159C19.3897 4.16578 19.3356 4.25552 19.3156 4.35534C19.2957 4.45516 19.3111 4.55882 19.3594 4.64846H19.4141C19.4689 4.72321 19.5491 4.77551 19.6396 4.79562C19.7301 4.81574 19.8249 4.80231 19.9063 4.75784L21.1094 3.99221C21.1884 3.92802 21.2425 3.83828 21.2625 3.73846C21.2825 3.63864 21.267 3.53498 21.2188 3.44534ZM16.8437 5.41409C16.8832 5.32643 16.8882 5.22715 16.8578 5.13596C16.8274 5.04478 16.7638 4.96836 16.6797 4.9219L15.3672 4.15628C15.2784 4.12754 15.1827 4.12796 15.0942 4.15748C15.0056 4.187 14.9288 4.24406 14.875 4.32034H14.8203C14.7916 4.40915 14.792 4.50482 14.8215 4.59337C14.851 4.68193 14.9081 4.75872 14.9844 4.81253L16.2969 5.52346C16.3428 5.55164 16.3942 5.5698 16.4476 5.57676C16.5011 5.58371 16.5554 5.5793 16.607 5.56381C16.6587 5.54832 16.7064 5.52211 16.7472 5.48688C16.788 5.45166 16.8209 5.40822 16.8437 5.3594V5.41409Z" fill="#43A1C5"/>
<path d="M23.6797 5.90625H22.6406L23.8437 3.0625H23.9531C24.7255 3.47671 25.387 4.07049 25.8819 4.79381C26.3768 5.51713 26.6906 6.3488 26.7969 7.21875C26.8024 7.62052 26.7842 8.02226 26.7422 8.42187C26.3594 10.8281 26.1406 12.4688 25.9766 13.3438C25.9708 13.3914 25.9526 13.4367 25.9238 13.4751C25.895 13.5135 25.8566 13.5436 25.8125 13.5625H25.7578C25.6611 13.5068 25.5803 13.4273 25.5228 13.3316C25.4654 13.2359 25.4334 13.1272 25.4297 13.0156V8.85938C25.4576 8.43937 25.4393 8.01756 25.375 7.60156C25.2881 7.18462 25.0814 6.80211 24.7803 6.50096C24.4791 6.19981 24.0966 5.99312 23.6797 5.90625Z" fill="#43A1C5"/>
<path d="M20.6917 3.36247L19.5004 4.13868C19.3233 4.25409 19.2733 4.49126 19.3887 4.6684L19.4006 4.68672C19.516 4.86386 19.7532 4.9139 19.9303 4.79848L21.1216 4.02228C21.2988 3.90686 21.3488 3.6697 21.2334 3.49256L21.2215 3.47424C21.106 3.2971 20.8689 3.24706 20.6917 3.36247Z" fill="#290663"/>
<path d="M12.0311 5.90625C11.5147 5.84261 10.9921 5.96059 10.5531 6.23996C10.1141 6.51933 9.78596 6.9427 9.62487 7.4375C9.51175 7.86521 9.47473 8.30947 9.51549 8.75V13.0703C9.51549 13.4531 9.0233 13.8359 8.91393 13.2891C8.64049 11.5937 8.42174 9.89844 8.1483 8.20312C8.03604 7.3767 8.13801 6.53528 8.44446 5.7596C8.7509 4.98392 9.25152 4.29999 9.89831 3.77344C9.89831 3.71875 9.95299 3.71875 9.95299 3.77344L12.0311 5.85156V5.90625Z" fill="#43A1C5"/>
<path d="M15.3807 4.22958C15.1955 4.12766 14.9627 4.19519 14.8608 4.38043C14.7589 4.56566 14.8264 4.79844 15.0117 4.90036L16.3149 5.61745C16.5001 5.71937 16.7329 5.65183 16.8348 5.4666C16.9368 5.28136 16.8692 5.04858 16.684 4.94666L15.3807 4.22958Z" fill="#290663"/>
<path d="M14.4925 11.1015C14.8673 11.2124 15.2662 11.2124 15.641 11.1015C15.4222 11.539 15.641 11.7578 16.0785 11.7578H24.555V13.3437C24.555 13.6718 24.7738 13.8359 24.9378 14.0546C25.2329 14.4161 25.4326 14.8458 25.5186 15.3044C25.6045 15.763 25.5741 16.2359 25.43 16.6796C25.3324 16.9554 25.1805 17.2089 24.9833 17.4249C24.786 17.641 24.5474 17.8152 24.2816 17.9375L23.516 18.0468H18.7582C18.7035 18.0468 18.7035 18.0468 18.7035 17.9921C18.6138 17.6908 18.5768 17.3763 18.5941 17.0625C18.6066 16.9323 18.5879 16.8011 18.5394 16.6796C18.5034 16.6198 18.4537 16.5695 18.3943 16.5329C18.3349 16.4962 18.2676 16.4743 18.198 16.4689C18.1285 16.4636 18.0586 16.4749 17.9943 16.5021C17.93 16.5292 17.8732 16.5714 17.8285 16.625C17.7754 16.7643 17.7567 16.9143 17.7738 17.0625C17.6802 17.5831 17.7569 18.1201 17.9925 18.5937L18.6488 19.9062C18.7035 19.9062 18.6488 19.9609 18.6488 19.9609C18.4121 20.1992 18.093 20.3377 17.7573 20.3478C17.4216 20.358 17.0948 20.2391 16.8441 20.0156C17.0628 19.6328 17.555 18.4296 17.391 18.0468C17.3584 17.9927 17.3144 17.9462 17.2621 17.9106C17.2098 17.8751 17.1504 17.8513 17.088 17.8409C17.0257 17.8305 16.9618 17.8337 16.9008 17.8504C16.8398 17.8671 16.7831 17.8968 16.7347 17.9375C16.648 18.0488 16.5915 18.1807 16.5707 18.3203C16.4066 18.7578 16.1878 19.25 15.9144 19.8515C15.641 20.4531 15.9144 20.3437 16.1332 20.5625C16.3631 20.8095 16.6458 21.0015 16.9602 21.124C17.2746 21.2466 17.6127 21.2966 17.9491 21.2703C18.2856 21.244 18.6118 21.1421 18.9033 20.9722C19.1949 20.8023 19.4444 20.5688 19.6332 20.289C19.6878 20.2343 19.6878 20.125 19.7425 20.0156C20.0051 20.1097 20.2847 20.147 20.5628 20.125H20.6722C20.5628 20.6171 20.891 20.6718 21.2738 20.6718H22.3128V22.0937C22.3128 22.4765 22.4769 22.6406 22.8597 22.6406H23.8441C23.68 23.8437 23.516 25.0468 23.2972 26.25C23.0785 27.4531 22.4769 27.0703 22.0941 27.3437H22.0394C22.0791 26.9603 22.0607 26.5731 21.9847 26.1953C21.8207 25.8125 21.3285 25.9765 21.3285 26.414V28C20.4834 28.6489 19.4811 29.0617 18.4242 29.1962C17.3672 29.3308 16.2935 29.1821 15.3128 28.7656C14.7654 28.5441 14.2503 28.2498 13.7816 27.8906C13.7269 27.8906 13.7269 27.8906 13.7269 27.8359V24.9375C13.7269 24.4453 13.016 24.3906 12.9613 24.9921V26.9609C12.9893 27.1054 12.9893 27.2539 12.9613 27.3984C12.9613 27.3984 12.9613 27.4531 12.9066 27.3984C12.8519 27.3437 11.8128 26.7968 11.7035 26.3046C11.3207 23.5703 10.8832 20.8359 10.4457 18.0468C10.391 17.664 9.95346 17.3906 9.7894 17.0625C9.56773 16.6487 9.45632 16.1848 9.4659 15.7155C9.47548 15.2461 9.60572 14.7872 9.84409 14.3828C10.0082 14.0546 10.391 13.7265 10.391 13.289V9.18746C10.391 9.17295 10.3967 9.15904 10.407 9.14879C10.4172 9.13853 10.4311 9.13277 10.4457 9.13277C11.0472 9.18746 11.5941 9.13277 12.1957 9.13277C12.2652 9.1332 12.334 9.11891 12.3975 9.09082C12.4611 9.06274 12.518 9.02151 12.5645 8.96985C12.611 8.91819 12.6461 8.85726 12.6673 8.79108C12.6886 8.7249 12.6956 8.65497 12.6878 8.5859V6.78121H14.0003C14.1232 6.77464 14.246 6.79581 14.3596 6.84314C14.4732 6.89047 14.5747 6.96276 14.6566 7.05465C15.641 7.92965 16.68 8.85933 18.1019 8.64058C18.4315 8.58773 18.747 8.46836 19.029 8.28973C19.3111 8.1111 19.5538 7.87694 19.7425 7.60152C20.016 7.2734 20.016 6.78121 20.5082 6.72652H23.1878C23.4578 6.70982 23.726 6.78061 23.9526 6.92838C24.1792 7.07615 24.3521 7.29303 24.4457 7.54683C24.5657 8.02923 24.6027 8.52857 24.555 9.0234H14.4925C14.5175 8.9319 14.5075 8.8344 14.4647 8.7498C14.4218 8.6652 14.3491 8.59952 14.2606 8.56547C14.1721 8.53143 14.0741 8.53145 13.9856 8.56554C13.8971 8.59962 13.8244 8.66534 13.7816 8.74996C13.7336 8.90932 13.715 9.07612 13.7269 9.24215V12.8515H13.6722C13.1539 12.8554 12.6473 13.0066 12.2116 13.2874C11.7759 13.5682 11.429 13.967 11.2113 14.4375C11.0843 14.7517 11.0237 15.0888 11.0331 15.4275C11.0425 15.7663 11.1218 16.0995 11.266 16.4062C11.4781 16.8808 11.8237 17.2834 12.2607 17.565C12.6977 17.8466 13.2071 17.995 13.7269 17.9921V19.7968C13.7101 19.8916 13.7296 19.9892 13.7816 20.0703C13.8174 20.1158 13.8631 20.1526 13.9152 20.1778C13.9673 20.2031 14.0245 20.2163 14.0824 20.2163C14.1403 20.2163 14.1974 20.2031 14.2495 20.1778C14.3016 20.1526 14.3473 20.1158 14.3832 20.0703C14.4227 20.0259 14.4528 19.9739 14.4716 19.9175C14.4904 19.8611 14.4976 19.8014 14.4925 19.7421V18.1015C17.6644 17.664 17.7191 13.289 14.4925 12.9609V11.1015ZM24.2816 15.5859C24.2816 15.2523 24.1491 14.9324 23.9132 14.6965C23.6773 14.4606 23.3574 14.3281 23.0238 14.3281H20.3441C20.0105 14.3281 19.6906 14.4606 19.4547 14.6965C19.2188 14.9324 19.0863 15.2523 19.0863 15.5859V15.6953C19.0863 16.0289 19.2188 16.3488 19.4547 16.5847C19.6906 16.8206 20.0105 16.9531 20.3441 16.9531H23.0238C23.3574 16.9531 23.6773 16.8206 23.9132 16.5847C24.1491 16.3488 24.2816 16.0289 24.2816 15.6953V15.5859ZM14.93 24.3906C14.766 24.8281 14.7113 25.7578 15.4769 25.7578C16.2425 25.7578 17.8285 25.8125 20.0707 25.7578C21.055 25.7578 20.8363 24.5546 20.5628 24.0078C19.5785 21.4375 15.641 21.6015 14.93 24.3906ZM19.1957 26.6875C19.1824 26.5957 19.1363 26.5118 19.0659 26.4515C18.9955 26.3911 18.9056 26.3584 18.8128 26.3593H16.68C16.5873 26.3584 16.4974 26.3911 16.427 26.4515C16.3566 26.5118 16.3105 26.5957 16.2972 26.6875C16.3105 26.7792 16.3566 26.8631 16.427 26.9234C16.4974 26.9838 16.5873 27.0165 16.68 27.0156H18.8128C18.9056 27.0165 18.9955 26.9838 19.0659 26.9234C19.1363 26.8631 19.1824 26.7792 19.1957 26.6875Z" fill="#86F1D7"/>
<path d="M10.3907 8.36684C10.3563 8.16032 10.3697 7.94865 10.4301 7.74815C10.4904 7.54766 10.596 7.3637 10.7386 7.21046C10.8813 7.05722 11.0573 6.9388 11.2529 6.86432C11.4486 6.78985 11.6588 6.76131 11.8672 6.78091H11.9219V8.36684H10.3907Z" fill="#FD4D41"/>
<path d="M15.6406 11.1016C15.2658 11.2125 14.867 11.2125 14.4922 11.1016V9.89844H24.5547V10.9922H15.8594L15.6406 11.1016Z" fill="#E9EB08"/>
<path d="M13.508 17.2813C13.1311 17.2537 12.7733 17.1049 12.4881 16.8571C12.2028 16.6093 12.0054 16.2758 11.9254 15.9065C11.8454 15.5372 11.8871 15.152 12.0442 14.8083C12.2013 14.4647 12.4654 14.1811 12.797 14C13.3861 13.7623 14.0282 13.6867 14.6564 13.7813C15.1205 13.8248 15.5484 14.0509 15.8458 14.4099C16.1432 14.7688 16.2859 15.2312 16.2423 15.6953C16.1988 16.1595 15.9727 16.5873 15.6138 16.8847C15.2548 17.1822 14.7924 17.3248 14.3283 17.2813H13.508ZM13.7814 15.4766C13.7891 15.4075 13.7821 15.3376 13.7609 15.2714C13.7396 15.2052 13.7046 15.1443 13.6581 15.0926C13.6116 15.041 13.5547 14.9998 13.4911 14.9717C13.4275 14.9436 13.3587 14.9293 13.2892 14.9297C13.2153 14.9209 13.1403 14.929 13.07 14.9534C12.9996 14.9778 12.9357 15.0178 12.8831 15.0704C12.8304 15.1231 12.7904 15.187 12.766 15.2573C12.7416 15.3277 12.7335 15.4027 12.7423 15.4766C12.7423 15.6216 12.8 15.7607 12.9025 15.8633C13.0051 15.9659 13.1442 16.0235 13.2892 16.0235C13.4246 16.0099 13.55 15.9463 13.641 15.8452C13.732 15.7441 13.7821 15.6126 13.7814 15.4766Z" fill="#FD4D41"/>
<path d="M7.76568 19.5232C7.10943 19.031 6.94537 18.3748 6.7813 17.4998C6.61724 16.6248 6.56255 16.5154 6.50787 16.0779C6.46573 15.8066 6.44743 15.5321 6.45318 15.2576C6.67193 14.1091 7.92974 13.8904 8.80474 14.4373C8.61285 14.9558 8.54264 15.5114 8.59953 16.0614C8.65642 16.6114 8.83889 17.1409 9.13287 17.6091C9.13287 17.6163 9.13145 17.6234 9.12871 17.6301C9.12596 17.6367 9.12193 17.6427 9.11685 17.6478C9.11177 17.6529 9.10574 17.6569 9.09911 17.6597C9.09247 17.6624 9.08536 17.6638 9.07818 17.6638C8.53131 17.9919 8.14849 17.5544 8.03912 17.0623C7.96662 16.8451 7.94373 16.6145 7.97212 16.3874C8.00051 16.1602 8.07947 15.9424 8.20318 15.7498C8.47662 15.2576 7.82037 14.9841 7.49224 15.4216C7.22375 15.8687 7.11537 16.3938 7.18495 16.9106C7.25452 17.4275 7.4979 17.9052 7.87505 18.2654C8.10574 18.4509 8.3904 18.5565 8.68625 18.5664C8.9821 18.5762 9.27315 18.4898 9.51568 18.3201H9.57037L9.73443 19.3591H9.67974C9.67974 19.3591 9.62505 19.4685 9.57037 19.4685C9.32758 19.6954 9.01047 19.8261 8.67834 19.8361C8.3462 19.8462 8.02176 19.735 7.76568 19.5232Z" fill="#86F1D7"/>
<path d="M27.5077 15.4767C27.289 15.1486 26.7421 15.1486 26.7421 15.6408C26.9064 15.8667 27.0123 16.1296 27.0505 16.4063C27.0886 16.683 27.0578 16.9648 26.9608 17.2267C26.9332 17.3321 26.8816 17.4297 26.8102 17.512C26.7389 17.5943 26.6495 17.6591 26.5491 17.7014C26.4487 17.7437 26.3399 17.7623 26.2311 17.7559C26.1223 17.7494 26.0165 17.7181 25.9218 17.6642C26.2202 17.1765 26.4003 16.6258 26.4478 16.056C26.4953 15.4863 26.4088 14.9133 26.1952 14.383C26.4493 14.1791 26.7637 14.065 27.0895 14.0584C27.4152 14.0518 27.734 14.1532 27.9961 14.3467C28.2582 14.5401 28.449 14.8149 28.5387 15.1281C28.6284 15.4413 28.612 15.7754 28.4921 16.0783C28.3827 16.7345 28.2733 17.3361 28.1093 17.9923C28.0207 18.3773 27.8732 18.7463 27.6718 19.0861C27.5636 19.2887 27.4111 19.4644 27.2258 19.6001C27.0405 19.7358 26.827 19.8281 26.6012 19.8701C26.3753 19.9122 26.1429 19.9028 25.9212 19.8428C25.6995 19.7828 25.4941 19.6737 25.3202 19.5236C25.3202 19.4689 25.2655 19.4142 25.3202 19.3595L25.4296 18.3752C25.4296 18.3752 25.4843 18.3205 25.4843 18.3752C25.7605 18.5522 26.0879 18.6322 26.4147 18.6025C26.7415 18.5728 27.0491 18.4351 27.289 18.2111C27.5996 17.8319 27.787 17.3668 27.8261 16.8781C27.8652 16.3895 27.7541 15.9005 27.5077 15.4767Z" fill="#86F1D7"/>
<path d="M24.2812 15.6953C24.2812 16.0289 24.1487 16.3488 23.9128 16.5847C23.677 16.8206 23.357 16.9531 23.0234 16.9531H20.3437C20.0102 16.9531 19.6902 16.8206 19.4543 16.5847C19.2185 16.3488 19.0859 16.0289 19.0859 15.6953V15.5859C19.0859 15.2523 19.2185 14.9324 19.4543 14.6965C19.6902 14.4606 20.0102 14.3281 20.3437 14.3281H23.0234C23.357 14.3281 23.677 14.4606 23.9128 14.6965C24.1487 14.9324 24.2812 15.2523 24.2812 15.5859V15.6953ZM23.4062 15.6406C23.414 15.5715 23.407 15.5016 23.3857 15.4354C23.3645 15.3693 23.3294 15.3083 23.283 15.2567C23.2365 15.205 23.1795 15.1638 23.116 15.1357C23.0524 15.1076 22.9836 15.0933 22.9141 15.0937H20.4531C20.3122 15.1061 20.1802 15.1676 20.0802 15.2677C19.9801 15.3677 19.9186 15.4997 19.9062 15.6406C19.9186 15.7815 19.9801 15.9136 20.0802 16.0136C20.1802 16.1136 20.3122 16.1752 20.4531 16.1875H22.9141C22.9836 16.1879 23.0524 16.1736 23.116 16.1456C23.1795 16.1175 23.2365 16.0762 23.283 16.0246C23.3294 15.9729 23.3645 15.912 23.3857 15.8458C23.407 15.7796 23.414 15.7097 23.4062 15.6406Z" fill="#290663"/>
<path d="M13.2891 16.0234C13.5911 16.0234 13.8359 15.7786 13.8359 15.4766C13.8359 15.1745 13.5911 14.9297 13.2891 14.9297C12.987 14.9297 12.7422 15.1745 12.7422 15.4766C12.7422 15.7786 12.987 16.0234 13.2891 16.0234Z" fill="white"/>
<path d="M22.8896 15.1025L20.4834 15.1073C20.1814 15.1079 19.937 15.3496 19.9376 15.6471C19.9382 15.9446 20.1835 16.1853 20.4856 16.1846L22.8918 16.1798C23.1938 16.1792 23.4382 15.9376 23.4376 15.6401C23.437 15.3426 23.1917 15.1019 22.8896 15.1025Z" fill="#FD4D41"/>
<path d="M20.6719 20.125H20.5625C20.2844 20.1471 20.0048 20.1098 19.7422 20.0156L19.0859 18.8672C19.0859 18.86 19.0874 18.8529 19.0901 18.8463C19.0928 18.8396 19.0969 18.8336 19.102 18.8285C19.107 18.8234 19.1131 18.8194 19.1197 18.8167C19.1263 18.8139 19.1334 18.8125 19.1406 18.8125H24.5L24.3359 19.9609H24.2812C23.2064 20.0157 22.1295 20.0157 21.0547 19.9609C20.9104 19.963 20.7728 20.022 20.6719 20.125Z" fill="#E9EB08"/>
<path d="M24.1719 20.7266L24.0078 21.9297H23.0234V20.7266C23.0234 20.7121 23.0292 20.6981 23.0395 20.6879C23.0497 20.6776 23.0636 20.6719 23.0781 20.6719H24.1719V20.7266Z" fill="#FD4D41"/>
<path d="M15.4766 25.7577C14.711 25.7577 14.7657 24.828 14.9297 24.3905C15.6407 21.6014 19.5782 21.4374 20.5625 24.0077C20.836 24.5545 21.0547 25.7577 20.0703 25.7577C17.8464 25.8306 16.3151 25.8306 15.4766 25.7577ZM16.461 23.5155C16.7885 23.5429 17.1178 23.5429 17.4453 23.5155V23.1874H17.3907C17.0631 23.2383 16.7479 23.3496 16.461 23.5155C16.4063 23.5155 16.4063 23.5155 16.461 23.5155ZM18.211 23.5155C18.5203 23.488 18.8314 23.488 19.1407 23.5155C18.8537 23.3496 18.5385 23.2383 18.211 23.1874H18.1563V23.5155C18.1646 23.5203 18.174 23.5228 18.1836 23.5228C18.1932 23.5228 18.2027 23.5203 18.211 23.5155ZM15.8594 24.3358H15.8047L15.6953 24.8827H16.2422V24.3358H15.8594ZM17.4453 24.3358H16.9532V24.8827H17.4453V24.3358ZM18.6485 24.3358H18.1563V24.8827H18.6485V24.3358ZM19.3594 24.8827H19.8516V24.3358H19.3594C19.3353 24.5173 19.3353 24.7012 19.3594 24.8827Z" fill="#290663"/>
<path d="M17.4453 23.5156C17.1178 23.543 16.7885 23.543 16.4609 23.5156C16.4063 23.5156 16.4063 23.5156 16.4609 23.4609C16.7479 23.295 17.0631 23.1837 17.3906 23.1328H17.4453V23.4609V23.5156Z" fill="#86F1D7"/>
<path d="M19.1406 23.5156C18.8313 23.4881 18.5202 23.4881 18.2109 23.5156C18.1964 23.5156 18.1825 23.5099 18.1723 23.4996C18.162 23.4894 18.1562 23.4754 18.1562 23.4609V23.1328H18.2109C18.5385 23.1837 18.8537 23.295 19.1406 23.4609V23.5156Z" fill="#86F1D7"/>
<path d="M15.8594 24.3359H16.2422V24.8828H15.6953L15.8047 24.3359H15.8594Z" fill="#86F1D7"/>
<path d="M16.9463 24.9072L16.9577 24.3058L17.4662 24.3154L17.4548 24.9169L16.9463 24.9072Z" fill="#86F1D7"/>
<path d="M18.1328 24.3555L18.6248 24.3427L18.6402 24.9331L18.1482 24.9459L18.1328 24.3555Z" fill="#86F1D7"/>
<path d="M19.3595 24.8828C19.3172 24.7037 19.2988 24.5198 19.3048 24.3359H19.797V24.8828H19.3048H19.3595Z" fill="#86F1D7"/>
<path d="M18.8105 26.3763L16.623 26.3807C16.4418 26.3811 16.2952 26.5283 16.2956 26.7095L16.2957 26.786C16.2961 26.9673 16.4433 27.1139 16.6245 27.1135L18.812 27.1091C18.9932 27.1088 19.1398 26.9616 19.1395 26.7803L19.1393 26.7038C19.139 26.5226 18.9918 26.376 18.8105 26.3763Z" fill="#290663"/>
<path d="M10.6094 28.7656L10.3359 28.5469C10.2813 28.4922 10.2813 28.4922 10.3359 28.4922L11.4844 27.6172H11.5391L13.3984 28.7656L12.6328 30.0781H12.5781L10.6094 28.7656Z" fill="#FD4D41"/>
<path d="M21.8203 28.8203L21.9844 28.7109C22.4182 28.3701 22.8751 28.0594 23.3516 27.7813L23.5156 27.6719H23.5703L24.7188 28.4922L22.4766 30.0781C22.4766 30.1328 22.4219 30.1328 22.4219 30.0781L21.7109 28.9297C21.6563 28.9297 21.6563 28.9297 21.7109 28.875L21.8203 28.8203Z" fill="#FD4D41"/>
<path d="M21.9844 28.7109L21.8203 28.8203C21.875 28.7109 21.875 28.7109 21.9844 28.7109Z" fill="#290663"/>
<path d="M13.2891 30.5156H13.2344L14 29.2578H14.0547C14.3645 29.4563 14.6944 29.6213 15.0391 29.75C15.9943 30.1296 17.0205 30.2975 18.0469 30.2422C18.0469 30.8437 17.9922 31.1719 18.7031 31.1719C19.4141 31.1719 20.2344 31.1719 20.9453 31.1719C21.6562 31.1719 21 31.2266 20.9453 31.2266L17.7188 33.4688H17.5L13.2891 30.5156Z" fill="#86F1D7"/>
<path d="M21.6562 30.4062H18.8672C18.8125 30.4062 18.8125 30.4063 18.8125 30.3516V30.1328C18.8125 30.0781 18.8125 30.0781 18.8672 30.0781C19.6016 29.955 20.3065 29.6953 20.9453 29.3125H21.0547L21.6562 30.3516C21.7109 30.4063 21.6562 30.4062 21.6562 30.4062Z" fill="#43A1C5"/>
</g>
<defs>
<clipPath id="clip0_411_3095">
<rect width="35" height="35" fill="white"/>
</clipPath>
</defs>
</svg>
