<svg width="31" height="27" viewBox="0 0 31 27" fill="none" xmlns="http://www.w3.org/2000/svg">
<path d="M9.74713 25.4211L11.3105 23.8577L6.35124 18.8984L4.78784 20.4618C4.15039 21.0993 4.15003 22.133 4.78748 22.7704L7.43819 25.4211C8.07571 26.0586 9.10967 26.0586 9.74713 25.4211Z" fill="#E28086"/>
<path d="M6.14457 24.1275C5.50711 23.49 5.50741 22.4564 6.14492 21.8189L7.70832 20.2555L6.35126 18.8984L4.78786 20.4618C4.15035 21.0994 4.15005 22.133 4.7875 22.7704L6.14457 24.1275Z" fill="#DD636E"/>
<path d="M12.0575 23.111L27.3537 7.81472C26.9794 7.83514 27.291 7.00967 27.005 6.72363C26.6141 6.33269 26.5096 5.76343 26.692 5.27692C26.2055 5.45943 25.6365 5.35518 25.2453 4.96388C24.9569 4.67545 24.8246 4.29038 24.8481 3.91297C24.8561 3.77824 24.8841 3.64496 24.9323 3.51718C24.4457 3.69969 23.8765 3.59508 23.4855 3.20414C23.1995 2.9181 22.374 3.22976 22.3945 2.85547L7.09814 18.1517L12.0575 23.111Z" fill="#FFE07D"/>
<path d="M24.8481 3.91297C24.8561 3.77824 24.8841 3.64496 24.9323 3.51718C24.4457 3.69969 23.8765 3.59508 23.4855 3.20414C23.1995 2.9181 22.374 3.22976 22.3945 2.85547L7.09814 18.1517L8.6979 19.7515L24.2397 4.20966L24.8481 3.91297Z" fill="#FFD064"/>
<path d="M27.3539 7.81449L28.8702 3.1201L27.089 1.33887L22.3946 2.8552C22.3742 3.2295 22.5071 3.61044 22.7932 3.89641C23.1841 4.28735 23.7534 4.3919 24.2399 4.20945C24.0574 4.69595 24.1616 5.26491 24.5529 5.65615C24.9442 6.04745 25.5131 6.15163 25.9996 5.96919C25.8171 6.45569 25.9217 7.02494 26.3126 7.41588C26.5987 7.70198 26.9796 7.83497 27.3539 7.81449Z" fill="#F6EEDA"/>
<path d="M27.8235 2.07332L27.089 1.33887L22.3946 2.8552C22.3742 3.2295 22.5071 3.61044 22.7932 3.89641C23.1841 4.28735 23.7534 4.3919 24.2399 4.20945L26.8293 2.94556L27.8235 2.07332Z" fill="#EFE1C1"/>
<path d="M12.237 22.6693L7.53961 17.9719C7.15454 17.5868 6.53032 17.5868 6.14525 17.9719C5.76018 18.357 5.76018 18.9812 6.14525 19.3663L10.8426 24.0637C11.2277 24.4487 11.8519 24.4487 12.237 24.0637C12.622 23.6786 12.622 23.0544 12.237 22.6693Z" fill="#FFE07D"/>
<path d="M9.28694 19.7193L7.53966 17.9721C7.15459 17.587 6.53031 17.5867 6.14523 17.9717C5.95273 18.1642 5.85645 18.4163 5.85645 18.6691C5.85645 18.9219 5.95273 19.174 6.14523 19.3665L7.89252 21.1138C7.70001 20.9213 7.60373 20.6692 7.60409 20.4167C7.60409 20.1639 7.70037 19.9119 7.89288 19.7193C8.27789 19.3343 8.90187 19.3343 9.28694 19.7193Z" fill="#FFD064"/>
<path d="M28.8008 3.18934L30.0502 1.94C30.3293 1.66091 30.2226 1.1865 29.8507 1.05357L29.0183 0.756463L28.5765 0.598566C28.2399 0.478751 27.8645 0.563238 27.6118 0.816041L27.0197 1.40817C26.6024 1.82545 26.5387 2.46189 26.8289 2.94594C26.8812 3.03288 26.9446 3.11491 27.0194 3.1897C27.2652 3.43556 27.588 3.55884 27.9103 3.55849C28.2323 3.55849 28.5546 3.43556 28.8008 3.18934Z" fill="#4A80AA"/>
<path d="M26.8289 2.94594L29.0183 0.756463L28.5765 0.598566C28.2399 0.478751 27.8646 0.563238 27.6118 0.816041L27.0197 1.40817C26.6024 1.82539 26.5387 2.46183 26.8289 2.94594Z" fill="#407093"/>
<path d="M27.0598 25.0807C25.9692 26.1713 24.2009 26.1713 23.1104 25.0807L10.1655 12.1359L11.1722 9.19319L14.1149 8.18652L27.0597 21.1313C28.1503 22.2219 28.1503 23.9901 27.0598 25.0807Z" fill="#E7A52E"/>
<path d="M27.7025 24.0808C27.5669 24.446 27.3526 24.7879 27.06 25.0806C25.9694 26.1712 24.2014 26.1708 23.1108 25.0802L10.166 12.1354L11.1725 9.19308L12.3962 8.77441L11.8083 10.493L24.7531 23.4378C25.5506 24.2354 26.7105 24.4501 27.7025 24.0808Z" fill="#E49824"/>
<path d="M7.03151 1.6811C5.1544 -0.0138021 2.2574 0.0430219 0.44873 1.85169L0.819074 2.22203C2.1671 3.57 2.96306 5.35256 3.16634 7.24805C3.24813 8.01089 3.58135 8.75188 4.16624 9.33671C5.52672 10.6972 7.73256 10.6972 9.09304 9.33671L11.3149 7.11482C12.6754 5.75434 12.6754 3.5485 11.3149 2.18802C10.1526 1.02568 8.37361 0.857299 7.03151 1.6811Z" fill="#F6EEDA"/>
<path d="M11.0899 7.33948L9.09318 9.33623C8.41339 10.016 7.52157 10.3559 6.62969 10.3568C5.73787 10.3559 4.84599 10.016 4.1662 9.33623C3.58131 8.75134 3.24917 8.01053 3.1669 7.24655C2.96355 5.35244 2.16754 3.56874 0.819632 2.22083L0.449707 1.85091C0.457132 1.84349 0.464617 1.83606 0.472101 1.8287C1.6896 0.626769 3.74352 1.03526 4.44744 2.59459C4.82378 3.42827 5.06377 4.32614 5.16268 5.25077C5.24597 6.01379 5.57812 6.7546 6.163 7.33948C6.84279 8.01928 7.73467 8.35914 8.62649 8.3601C9.51825 8.35914 10.4101 8.01928 11.0899 7.33948Z" fill="#EFE1C1"/>
<path d="M12.5273 5.90245L7.88145 10.5483C7.34681 11.0829 7.34681 11.9497 7.88145 12.4843C8.4161 13.0189 9.28288 13.0189 9.81747 12.4843L14.4633 7.83846C14.9979 7.30382 14.9979 6.43703 14.4633 5.90245C13.9287 5.3678 13.0619 5.3678 12.5273 5.90245Z" fill="#F9F6F9"/>
<path d="M11.2478 10.4866C11.598 10.487 11.9483 10.3532 12.2157 10.0858L9.81722 12.4842C9.55029 12.7512 9.20001 12.8851 8.8493 12.8851C8.49902 12.8855 8.14874 12.7516 7.88139 12.4842C7.34662 11.9494 7.34704 11.0827 7.88139 10.5484L10.2798 8.1499C9.74507 8.68467 9.74507 9.55097 10.2798 10.0857C10.5472 10.3532 10.8975 10.487 11.2478 10.4866Z" fill="#DDDAEC"/>
<path d="M25.5362 9.63165C25.7116 9.80703 25.9959 9.80703 26.1713 9.63165L27.6712 8.13171C27.7226 8.08033 27.759 8.01848 27.7805 7.9522L27.7809 7.95232L29.2639 3.36119L30.3679 2.25722C30.6085 2.01663 30.7075 1.67491 30.6329 1.34301C30.5582 1.01111 30.3224 0.744651 30.002 0.630285L28.7275 0.175274C28.2303 -0.00214364 27.6677 0.124318 27.2943 0.497716L26.8474 0.944523L22.2563 2.42764L22.2564 2.42817C22.19 2.44955 22.1281 2.48602 22.0765 2.53751L15.5886 9.02544L14.7501 8.18692L14.7808 8.15626C15.1241 7.81286 15.3132 7.35629 15.3132 6.87068C15.3132 6.38508 15.1241 5.92851 14.7808 5.58517C14.4374 5.24177 13.9808 5.05268 13.4952 5.05268C13.232 5.05268 12.9774 5.10872 12.7447 5.21429C12.771 5.02944 12.7849 4.84155 12.7849 4.65155C12.7849 3.601 12.3756 2.61338 11.6327 1.87083C10.8906 1.12799 9.90324 0.718844 8.85287 0.718844C8.23624 0.718844 7.63154 0.86285 7.08551 1.13763C5.02021 -0.509607 2.02566 -0.359913 0.131492 1.53408C0.0472436 1.61833 -5.9821e-05 1.73269 5.67767e-08 1.85185C5.99345e-05 1.97101 0.0474831 2.08525 0.131791 2.1695L0.502135 2.53925C1.21318 3.2503 1.77088 4.09607 2.15979 5.05292C2.25314 5.28261 2.51487 5.3932 2.74492 5.29985C2.97467 5.20644 3.08526 4.94448 2.99185 4.71473C2.5575 3.64615 1.93351 2.7005 1.13696 1.90382L1.10067 1.8676C2.73965 0.534601 5.1317 0.570048 6.73098 2.0143C6.87888 2.14783 7.09707 2.16801 7.26688 2.0637C7.74291 1.77144 8.29127 1.61695 8.85275 1.61695C9.66313 1.61695 10.4247 1.93251 10.9974 2.50578C11.5708 3.07893 11.8866 3.84093 11.8866 4.65149C11.8866 5.29213 11.6886 5.90204 11.3228 6.4128C11.1785 5.84498 10.8484 5.20608 10.3428 4.55473C10.1908 4.35881 9.90863 4.32324 9.71277 4.47527C9.51685 4.62736 9.48122 4.90945 9.63331 5.10537C10.4574 6.16736 10.6697 7.12295 10.3942 7.40042L10.2569 7.53778L9.37955 8.41511C9.10118 8.69055 8.14541 8.47846 7.08384 7.65478C6.88804 7.50287 6.60589 7.53826 6.45374 7.73424C6.30171 7.93022 6.33734 8.2123 6.53326 8.36433C7.18485 8.86994 7.82381 9.19963 8.39193 9.34369C7.88081 9.70985 7.27048 9.90804 6.62954 9.90804C5.81886 9.90804 5.05686 9.59225 4.48377 9.01868C3.99558 8.53049 3.68649 7.88459 3.61338 7.20031C3.58925 6.97283 3.55656 6.74674 3.5162 6.52842C3.47111 6.28448 3.23633 6.12317 2.99305 6.16844C2.74917 6.21347 2.58792 6.44771 2.633 6.69165C2.66917 6.88739 2.69851 7.09044 2.72025 7.2954C2.81509 8.18338 3.21579 9.02095 3.84852 9.65368C4.59113 10.3969 5.57881 10.8062 6.62954 10.8062C6.81978 10.8062 7.00779 10.7924 7.19281 10.766C7.08725 10.9987 7.0312 11.2533 7.0312 11.5165C7.0312 12.0021 7.2203 12.4587 7.56364 12.8021C7.90704 13.1455 8.3636 13.3345 8.84921 13.3345C9.33482 13.3345 9.79139 13.1455 10.1348 12.8021L10.1654 12.7714L11.0043 13.6102L7.30437 17.3096C7.15749 17.2598 7.00192 17.2336 6.84223 17.2336C6.45895 17.2336 6.09855 17.3829 5.82754 17.6539C5.42917 18.0523 5.31601 18.6282 5.48498 19.1291L4.47017 20.144C4.0769 20.5372 3.86032 21.06 3.86032 21.6159C3.86032 22.1719 4.0769 22.6946 4.47011 23.0879L7.12042 25.7388C7.52627 26.1443 8.05937 26.347 8.59252 26.347C9.12567 26.347 9.65888 26.1442 10.0649 25.7386L11.08 24.7236C11.2289 24.7738 11.3841 24.8004 11.5397 24.8004C11.9072 24.8004 12.2747 24.6605 12.5544 24.3808C12.8255 24.1097 12.9747 23.7494 12.9747 23.366C12.9747 23.2065 12.9485 23.051 12.8987 22.9042L16.5985 19.2045L22.7926 25.3986C23.4048 26.0108 24.2189 26.3481 25.0849 26.3481C25.9508 26.3481 26.7648 26.0108 27.3771 25.3986C27.9894 24.7863 28.3265 23.9722 28.3265 23.1064C28.3265 22.2405 27.9894 21.4264 27.3771 20.8141L21.1831 14.6199L24.9247 10.8782C25.1001 10.7029 25.1001 10.4185 24.9247 10.2432C24.7493 10.0678 24.465 10.0678 24.2896 10.2432L20.548 13.9848L16.2238 9.66057L22.1376 3.74674C22.2238 3.91781 22.3373 4.07595 22.4754 4.21403C22.8076 4.54623 23.2503 4.72999 23.7046 4.74401C23.7187 5.19842 23.9027 5.64133 24.2352 5.97383C24.5674 6.30604 25.01 6.48986 25.4644 6.50381C25.4785 6.95822 25.6625 7.40114 25.9949 7.73358C26.1329 7.87154 26.2908 7.98489 26.462 8.07099L25.5362 8.99664C25.3608 9.1719 25.3608 9.45626 25.5362 9.63165ZM8.84933 12.4364C8.60365 12.4364 8.37259 12.3407 8.19888 12.167C8.02512 11.9932 7.92943 11.7622 7.92943 11.5165C7.92943 11.2708 8.02512 11.0398 8.19888 10.866L12.8447 6.22023C13.0184 6.04647 13.2494 5.95078 13.4951 5.95078C13.7408 5.95078 13.9719 6.04647 14.1456 6.22023C14.3193 6.394 14.415 6.62501 14.415 6.87068C14.415 7.11642 14.3193 7.34743 14.1456 7.5212L9.49978 12.167C9.32608 12.3408 9.09507 12.4364 8.84933 12.4364ZM9.43003 25.1033C8.96837 25.5646 8.21702 25.5646 7.75549 25.1035L5.1053 22.4527C4.88171 22.2291 4.75854 21.9319 4.75854 21.6159C4.75854 21.2998 4.88171 21.0025 5.10536 20.779L6.01436 19.87L10.3389 24.1946L9.43003 25.1033ZM11.9193 23.7456C11.71 23.9549 11.3694 23.9549 11.1601 23.7456L6.46278 19.0483C6.25345 18.8389 6.25345 18.4983 6.46278 18.2889C6.56416 18.1876 6.69894 18.1317 6.84235 18.1317C6.98576 18.1317 7.12054 18.1876 7.22197 18.2889L11.9193 22.9863C12.0207 23.0877 12.0766 23.2225 12.0766 23.3659C12.0766 23.5094 12.0208 23.6442 11.9193 23.7456ZM12.368 22.1647L8.0438 17.8405L11.6395 14.2453L15.9635 18.5692L12.368 22.1647ZM27.4284 23.1062C27.4284 23.7323 27.1847 24.3207 26.742 24.7634C26.2994 25.206 25.7108 25.4499 25.0849 25.4499C24.4589 25.4499 23.8704 25.2061 23.4278 24.7634L10.8007 12.1363L14.115 8.82204L26.742 21.4491C27.1847 21.8917 27.4284 22.4803 27.4284 23.1062ZM27.337 1.72527L27.9293 1.1329C28.0588 1.00314 28.2548 0.960092 28.4255 1.02129L29.7 1.4763C29.7659 1.50755 29.7791 1.56576 29.7328 1.62222L28.4833 2.87169C28.1673 3.18772 27.653 3.18772 27.337 2.87169C27.021 2.55565 27.021 2.04136 27.337 1.72527ZM26.4197 6.12652C26.4816 5.96162 26.4413 5.77576 26.3167 5.65127C26.1922 5.52661 26.0062 5.48649 25.8415 5.54834C25.505 5.67457 25.1238 5.59229 24.8702 5.33871C24.6162 5.08477 24.5337 4.70323 24.6599 4.36678C24.7218 4.20187 24.6816 4.01601 24.5571 3.89147C24.4324 3.76686 24.2465 3.72668 24.0818 3.78854C23.7453 3.91482 23.3641 3.83243 23.1105 3.5789C22.9966 3.46502 22.9161 3.32424 22.8743 3.17204L26.2141 2.09316C26.206 2.16082 26.2014 2.22932 26.2014 2.29854C26.2014 2.75493 26.3792 3.18407 26.7019 3.50681C27.0247 3.82955 27.4538 4.00733 27.9102 4.00733C27.9794 4.00733 28.0478 4.00272 28.1155 3.9947L27.0368 7.33414C26.8845 7.2924 26.7437 7.21223 26.63 7.09852C26.376 6.84452 26.2935 6.46298 26.4197 6.12652Z" fill="black"/>
</svg>
