<svg width="28" height="28" viewBox="0 0 28 28" fill="none" xmlns="https://www.w3.org/2000/svg">
<g clip-path="url(#clip0_411_3061)">
<path d="M21.7956 15.4983L14.4658 5.60458C14.3154 5.38307 14.0653 5.25049 13.7975 5.25049C13.5296 5.25049 13.2795 5.38307 13.1292 5.60458L5.79931 15.4983C5.70769 15.6319 5.65918 15.7904 5.65918 15.9526V23.7136C5.65918 24.1599 6.02136 24.5221 6.46762 24.5221H21.1273C21.5736 24.5221 21.9358 24.1599 21.9358 23.7136V15.9526C21.9358 15.7904 21.8873 15.6319 21.7956 15.4983Z" fill="#FD7E7F"/>
<path d="M21.9352 15.9526V23.7136C21.9352 24.1599 21.573 24.5221 21.1267 24.5221H13.7969V5.25049C14.0647 5.25049 14.3148 5.38307 14.4652 5.60458L21.795 15.4983C21.8867 15.6319 21.9352 15.7904 21.9352 15.9526Z" fill="#E85082"/>
<path d="M22.4204 15.1436H18.971C18.5248 15.1436 18.1626 15.5057 18.1626 15.952V18.1617H16.3301V15.952C16.3301 15.5057 15.968 15.1436 15.5217 15.1436H12.0724C11.6261 15.1436 11.2639 15.5057 11.2639 15.952V18.1617H9.43145V15.952C9.43145 15.5057 9.06927 15.1436 8.62301 15.1436H5.17367C4.72742 15.1436 4.36523 15.5057 4.36523 15.952V20.2637C4.36523 20.3224 4.3717 20.3817 4.38464 20.4388L5.22757 24.2331V26.7851C5.22757 27.2313 5.58975 27.5935 6.03601 27.5935H10.8327C10.8327 27.5935 12.0319 25.9686 13.797 25.9777C14.6712 25.9826 15.6855 26.3889 16.7613 27.5935H21.558C22.0043 27.5935 22.3665 27.2313 22.3665 26.7851V24.2331L23.2094 20.4388C23.2224 20.3817 23.2288 20.3224 23.2288 20.2637V15.952C23.2288 15.5057 22.8666 15.1436 22.4204 15.1436Z" fill="#FFE3C0"/>
<path d="M23.2287 15.952V20.2637C23.2287 20.3224 23.2222 20.3817 23.2093 20.4388L22.3663 24.2331V26.7851C22.3663 27.2313 22.0042 27.5935 21.5579 27.5935H16.7612C15.6854 26.3889 14.6711 25.9826 13.7969 25.9777V15.1436H15.5215C15.9678 15.1436 16.33 15.5057 16.33 15.952V18.1617H18.1624V15.952C18.1624 15.5057 18.5246 15.1436 18.9709 15.1436H22.4202C22.8665 15.1436 23.2287 15.5057 23.2287 15.952Z" fill="#FCD0A2"/>
<path d="M15.9533 24.5753V27.5934H11.6416V24.5753C11.6416 23.3847 12.6069 22.4194 13.7974 22.4194C14.3925 22.4194 14.9314 22.6609 15.3216 23.0511C15.7118 23.4413 15.9533 23.9803 15.9533 24.5753Z" fill="#FFBA84"/>
<path d="M15.9527 24.5753V27.5934H13.7969V22.4194C14.3919 22.4194 14.9308 22.6609 15.3211 23.0511C15.7113 23.4413 15.9527 23.9803 15.9527 24.5753Z" fill="#F4A76C"/>
<path d="M13.7973 21.6113C12.1626 21.6113 10.833 22.9409 10.833 24.5756V27.5938H12.4499V24.5756C12.4499 23.8324 13.0541 23.2282 13.7973 23.2282C14.5405 23.2282 15.1447 23.8324 15.1447 24.5756V27.5938H16.7616V24.5756C16.7616 22.9409 15.4319 21.6113 13.7973 21.6113Z" fill="#FCD0A2"/>
<path d="M16.7612 24.5756V27.5938H15.1443V24.5756C15.1443 23.8324 14.5401 23.2282 13.7969 23.2282V21.6113C15.4315 21.6113 16.7612 22.9409 16.7612 24.5756Z" fill="#FFBA84"/>
<path d="M18.4779 2.29811L14.1662 0.0883789L14.1279 0.126106V5.9113C14.1382 5.90699 14.1489 5.90214 14.1592 5.89675L18.4709 3.74091C18.7436 3.60455 18.916 3.32645 18.9177 3.0214C18.9193 2.71688 18.749 2.43716 18.4779 2.29811Z" fill="#AB77E2"/>
<path d="M14.6061 0.807463V5.6042C14.6061 6.05046 14.244 6.41264 13.7977 6.41264C13.3514 6.41264 12.9893 6.05046 12.9893 5.6042V0.807463C12.9893 0.361204 13.3514 -0.000976562 13.7977 -0.000976562C14.244 -0.000976562 14.6061 0.361204 14.6061 0.807463Z" fill="#FFE3C0"/>
<path d="M14.6053 0.807463V5.6042C14.6053 6.05046 14.2431 6.41264 13.7969 6.41264V-0.000976562C14.2431 -0.000976562 14.6053 0.361204 14.6053 0.807463Z" fill="#FCD0A2"/>
<path d="M6.89868 6.84332H2.58701C1.91358 6.84332 1.27221 6.58403 0.781114 6.1133C0.277402 5.63039 0 4.99005 0 4.31021C0 3.63037 0.277402 2.99003 0.781114 2.50712C1.21045 2.09557 1.75464 1.84566 2.33466 1.78928C2.45501 1.41621 2.66003 1.07144 2.93981 0.779649C3.42266 0.275938 4.063 -0.00146484 4.74284 -0.00146484C5.42269 -0.00146484 6.06302 0.275938 6.54588 0.779703C6.82565 1.07155 7.03073 1.41643 7.15108 1.78961C8.42981 1.91664 9.43179 2.99865 9.43179 4.31021C9.43179 5.70698 8.29545 6.84332 6.89868 6.84332Z" fill="#F8F8F8"/>
<path d="M25.0079 10.2933H20.6962C19.2994 10.2933 18.1631 9.15699 18.1631 7.76022C18.1631 6.44753 19.1668 5.36482 20.4471 5.23929C20.7817 4.23144 21.7334 3.50244 22.852 3.50244C23.9706 3.50244 24.9222 4.23128 25.2569 5.23902C25.8381 5.29475 26.3836 5.54483 26.8138 5.95719C27.3175 6.44004 27.5949 7.08038 27.5949 7.76022C27.5949 8.44006 27.3175 9.0804 26.8138 9.56331C26.3227 10.034 25.6813 10.2933 25.0079 10.2933Z" fill="#E1DEF3"/>
</g>
<defs>
<clipPath id="clip0_411_3061">
<rect width="27.5947" height="27.5947" fill="white"/>
</clipPath>
</defs>
</svg>
