<svg width="17" height="31" viewBox="0 0 17 31" fill="none" xmlns="http://www.w3.org/2000/svg">
<path d="M1.91928 9.23535H14.8947C15.6102 9.23535 16.1955 9.82071 16.1955 10.5361V10.8288C16.1955 11.5443 15.6102 12.1296 14.8947 12.1296H1.91928C1.20384 12.1296 0.61848 11.5443 0.61848 10.8288V10.5361C0.58596 9.82071 1.17132 9.23535 1.91928 9.23535Z" fill="#9F33D3"/>
<path d="M14.1465 9.23511H2.66699C2.66699 7.02375 4.45559 5.20264 6.69946 5.20264H10.1466C12.3579 5.20264 14.1465 7.02375 14.1465 9.23511Z" fill="#FFC653"/>
<path d="M2.27734 12.1294H14.5374V26.9585H2.27734V12.1294Z" fill="#FF3E7C"/>
<path d="M1.91928 26.9585H14.8947C15.6102 26.9585 16.1955 27.5439 16.1955 28.2593V28.552C16.1955 29.2674 15.6102 29.8528 14.8947 29.8528H1.91928C1.20384 29.8528 0.61848 29.2674 0.61848 28.552V28.2593C0.58596 27.5439 1.17132 26.9585 1.91928 26.9585Z" fill="#9F33D3"/>
<path d="M9.69117 12.1294H4.52051V16.0968C4.52051 16.8123 5.10587 17.3976 5.8213 17.3976C6.53674 17.3976 7.1221 16.8123 7.1221 16.0968V15.8692C7.1221 15.1537 7.70746 14.5684 8.4229 14.5684C9.13834 14.5684 9.72369 15.1537 9.72369 15.8692V18.5033C9.72369 19.2187 10.3091 19.8041 11.0245 19.8041C11.7399 19.8041 12.3253 19.2187 12.3253 18.5033V12.1294H9.69117Z" fill="#FFC653"/>
<path d="M6.95996 0.8125H9.85423V5.20269H6.95996V0.8125Z" fill="#FF3E7C"/>
<path d="M16.7803 10.8291V10.5365C16.7803 9.49581 15.9348 8.6503 14.8941 8.6503H14.6665C14.4063 6.47146 12.6177 4.78043 10.4064 4.65035V3.77231H11.0568C11.382 3.77231 11.6746 3.51215 11.6746 3.15443V2.86175C11.6746 2.53655 11.4145 2.24387 11.0568 2.24387H10.4064V0.585358C10.4064 0.260159 10.1462 0 9.82101 0H6.92674C6.60154 0 6.34138 0.260159 6.34138 0.585358V4.65035C4.19507 4.81295 2.40647 6.47146 2.11379 8.6503H1.91868C0.878038 8.6503 0.0325207 9.49581 0.0325207 10.5365V10.8291C0.0325207 11.7722 0.747958 12.5852 1.69104 12.6828V18.3412C1.69104 18.6664 1.95119 18.9266 2.27639 18.9266C2.60159 18.9266 2.86175 18.6664 2.86175 18.3412V12.7153H3.99995V16.1299C3.99995 17.1705 4.84547 17.9835 5.85358 17.9835C6.89422 17.9835 7.70722 17.138 7.70722 16.1299V15.8697C7.70722 15.4795 7.9999 15.1543 8.42266 15.1218C8.84542 15.1218 9.17062 15.447 9.17062 15.8697V18.5038C9.17062 19.5445 9.98361 20.3575 10.9917 20.39C12.0324 20.39 12.8779 19.5445 12.8779 18.5038V12.7153H13.951V26.4062H2.82923V24.2599C2.82923 23.9347 2.56907 23.6745 2.24387 23.6745C1.91868 23.6745 1.65852 23.9347 1.65852 24.2599V26.4062C0.715439 26.5037 0 27.3167 0 28.2598V28.5525C0 29.5931 0.845519 30.4386 1.88616 30.4386H14.8616C15.9022 30.4386 16.7478 29.5931 16.7478 28.5525V28.2598C16.7478 27.3167 16.0323 26.5037 15.0892 26.4062V12.6828C16.0323 12.5852 16.7478 11.7722 16.7803 10.8291ZM7.5121 1.1382H9.26817V4.39019H7.5121V1.1382ZM6.66658 5.78854H10.1137C11.8047 5.78854 13.2356 7.0243 13.5283 8.68282H3.28451C3.54467 6.99178 4.97555 5.78854 6.66658 5.78854ZM11.7072 18.5038C11.7072 18.8941 11.4145 19.2193 10.9917 19.2518C10.569 19.2518 10.2438 18.9266 10.2438 18.5038V15.8697C10.2438 14.8291 9.43077 14.0161 8.42266 13.9836C7.38202 13.9836 6.5365 14.8291 6.5365 15.8697V16.1299C6.5365 16.5201 6.2113 16.8453 5.82106 16.8453C5.43083 16.8453 5.10563 16.5201 5.10563 16.1299V12.7153H11.7072V18.5038ZM12.26 11.5771H1.91868C1.52844 11.5771 1.17072 11.2519 1.17072 10.8291V10.5365C1.17072 10.1462 1.49592 9.78849 1.91868 9.78849H14.8941C15.2844 9.78849 15.6421 10.1137 15.6421 10.5365V10.8291C15.6421 11.2194 15.3169 11.5771 14.8941 11.5771H12.26ZM15.6421 28.2598V28.5525C15.6421 28.9427 15.3169 29.3004 14.8941 29.3004H1.91868C1.52844 29.3004 1.17072 28.9752 1.17072 28.5525V28.2598C1.17072 27.8696 1.49592 27.5118 1.91868 27.5118H14.8941C15.2844 27.5118 15.6096 27.837 15.6421 28.2598ZM1.69104 21.4631V21.0404C1.69104 20.7152 1.95119 20.455 2.27639 20.455C2.60159 20.455 2.86175 20.7152 2.86175 21.0404V21.4631C2.86175 21.7883 2.60159 22.0485 2.27639 22.0485C1.95119 22.0485 1.69104 21.7883 1.69104 21.4631Z" fill="#0E2D7A"/>
</svg>
