<svg width="37" height="37" viewBox="0 0 37 37" fill="none" xmlns="http://www.w3.org/2000/svg">
<mask id="mask0_411_3141" style="mask-type:luminance" maskUnits="userSpaceOnUse" x="0" y="0" width="37" height="37">
<path d="M0 0H36.0676V36.0676H0V0Z" fill="white"/>
</mask>
<g mask="url(#mask0_411_3141)">
<path d="M31.4615 1.65638C31.4615 2.28066 30.9554 2.7868 30.3311 2.7868C29.7068 2.7868 29.2007 2.28066 29.2007 1.65638C29.2007 1.0321 29.7068 0.525956 30.3311 0.525956C30.9554 0.525956 31.4615 1.0321 31.4615 1.65638Z" fill="#F8F7F7"/>
<path d="M4.79834 1.65638C4.79834 2.28066 5.30448 2.7868 5.92876 2.7868C6.55304 2.7868 7.05911 2.28066 7.05911 1.65638C7.05911 1.0321 6.55304 0.525956 5.92876 0.525956C5.30448 0.525956 4.79834 1.0321 4.79834 1.65638Z" fill="#F8F7F7"/>
<path d="M14.1919 7.0202C14.1919 6.45164 14.3303 6.07223 14.7104 5.70726C14.9156 5.51022 15.3837 5.12672 15.3837 5.12672C15.591 5.05423 15.8139 5.01479 16.0459 5.01479H20.0208C20.7697 5.01479 21.4228 5.42534 21.7672 6.03377C21.7672 6.03377 21.7099 6.66164 21.7099 7.0202H14.1919Z" fill="#F8F7F7"/>
<path d="M22.0266 7.02075L17.752 7.51239L14.041 7.02075C14.041 6.46713 14.265 5.96557 14.6285 5.60271C14.8392 5.39215 15.0968 5.22738 15.3842 5.12735C15.3237 5.24605 15.2751 5.372 15.2393 5.50268C15.1658 5.77051 15.3704 6.03453 15.6481 6.03453L21.7676 6.03439C21.9332 6.32533 22.0266 6.66219 22.0266 7.02075Z" fill="#E8E8E8"/>
<path d="M28.3998 33.2698H23.1597L24.2598 35.0534C24.3865 35.268 24.6172 35.3996 24.8664 35.3996L25.3715 35.5368H26.6592C26.9084 35.5368 27.1391 35.4051 27.2658 35.1905L27.9007 34.1153L27.9634 33.694L28.3998 33.2698Z" fill="#B57F5F"/>
<path d="M27.9006 34.1153L25.2728 34.1152C24.9456 34.1152 24.7425 34.471 24.9088 34.7528L25.3715 35.5368H24.7939C24.5443 35.5368 24.3134 35.4049 24.1865 35.19L23.0532 33.2699L25.6237 32.5774L28.4 33.2699L27.9006 34.1153Z" fill="#9F6E50"/>
<path d="M13.0146 33.2698H7.77441L8.87455 35.0534C9.00127 35.268 9.23191 35.3996 9.48114 35.3996L9.9863 35.5368H11.274C11.5232 35.5368 11.7539 35.4051 11.8806 35.1905L12.5154 34.1153L12.5782 33.694L13.0146 33.2698Z" fill="#B57F5F"/>
<path d="M12.5149 34.1158L9.88704 34.1157C9.5599 34.1157 9.35674 34.4715 9.52306 34.7532L9.98581 35.5373H9.40816C9.15858 35.5373 8.92766 35.4054 8.80079 35.1905L7.66748 33.2704L10.238 32.5778L13.0142 33.2704L12.5149 34.1158Z" fill="#9F6E50"/>
<path d="M29.2078 33.1374L7.05158 33.0339C5.49539 33.0339 4.2338 31.7724 4.2338 30.2161L4.12891 10.2039C4.12891 9.28214 5.07519 7.58394 5.07519 7.58394C5.54611 7.23009 6.13157 7.02045 6.76607 7.02045H29.3008C30.857 7.02045 32.1185 8.28204 32.1185 9.83823V30.453C32.1185 31.0873 31.909 31.6728 31.5552 32.1437C31.5552 32.1437 30.9371 32.554 30.6579 32.7349C30.2172 33.0207 29.7723 33.1374 29.2078 33.1374Z" fill="#C38C66"/>
<path d="M31.5554 32.144C31.0412 32.8288 30.2227 33.2712 29.3012 33.2712H6.76602C5.2099 33.2712 3.94824 32.0095 3.94824 30.4534V9.83846C3.94824 8.91704 4.39063 8.09855 5.07535 7.58423V29.4672C5.07535 30.9458 6.27432 32.1441 7.75224 32.1441L31.5554 32.144Z" fill="#B57F5F"/>
<path d="M30.0056 28.9725C30.0056 29.9362 29.2244 30.7175 28.2606 30.7175C27.2969 30.7175 26.5156 29.9362 26.5156 28.9725C26.5156 28.0087 27.2969 27.2275 28.2606 27.2275C29.2244 27.2275 30.0056 28.0087 30.0056 28.9725Z" fill="#F8F7F7"/>
<path d="M7.98766 27.2274C8.95141 27.2274 9.73264 28.0087 9.73264 28.9724C9.73264 29.9362 8.95141 30.7175 7.98766 30.7175C7.0239 30.7175 6.24268 29.9362 6.24268 28.9724C6.24268 28.0087 7.0239 27.2274 7.98766 27.2274Z" fill="#F8F7F7"/>
<path d="M14.0498 9.13411L14.7585 17.0195L14.0498 24.3532H10.0556L9.38672 17.156L10.0556 9.13411H14.0498Z" fill="#FFE07D"/>
<path d="M22.0385 9.13411L22.7205 16.6395L22.0385 24.3532H18.0443L17.3008 16.7437L18.0443 9.13411H22.0385Z" fill="#BDE4FF"/>
<path d="M30.0061 11.9524V21.8598C30.0061 22.4942 29.7964 23.0796 29.4426 23.5505C29.4426 23.5505 29.1138 23.7973 28.9634 23.9281C28.4688 24.358 27.8951 24.4616 27.1883 24.4616H26.033L24.999 16.9061L26.033 9.13465H27.1883C28.7444 9.13465 30.0061 10.3963 30.0061 11.9524Z" fill="#FF8086"/>
<path d="M10.0558 9.13424V24.3893H8.87938C7.32326 24.3893 6.34133 23.1037 6.34133 21.5475L6.31738 12.3867C6.31738 11.465 7.18864 9.69772 7.18864 9.69772C7.65963 9.34395 8.24503 9.13424 8.87938 9.13424H10.0558Z" fill="#F8F7F7"/>
<path d="M18.0445 24.3532H14.0503V9.13411H18.0445V24.3532Z" fill="#AFEFA5"/>
<path d="M26.0328 24.1672H22.0386V9.13397H26.0328V24.1672Z" fill="#7BB1FF"/>
<path d="M14.0503 23.5493L14.4532 24.1907L14.0503 24.6764H10.0561L9.53711 24.1129L10.0561 23.5444C10.1096 23.5479 10.1639 23.5493 10.2181 23.5493H14.0503Z" fill="#FFD064"/>
<path d="M22.0383 23.5493L22.4625 23.9929L22.0383 24.6764H18.0441L17.6543 24.1668L18.0441 23.5493H22.0383Z" fill="#99DBFF"/>
<path d="M29.4423 23.5493C28.9281 24.2341 28.1095 24.6764 27.1881 24.6764H26.0328L25.5684 24.1728L26.0328 23.5493H29.4423Z" fill="#E5646E"/>
<path d="M10.0557 23.5444V24.6764H8.8793C7.32318 24.6764 6.06152 23.4148 6.06152 21.8587V11.9514C6.06152 11.0299 6.50391 10.2114 7.18863 9.69714V20.5202C7.18863 22.139 8.45804 23.4606 10.0557 23.5444Z" fill="#E8E8E8"/>
<path d="M18.0445 24.6764H14.0503V23.5493H18.0445V24.6764Z" fill="#8CE1A4"/>
<path d="M26.0328 24.6764H22.0386V23.5493H26.0328V24.6764Z" fill="#62A5F4"/>
<path d="M32.1191 23.249V30.4534C32.1191 32.0095 30.8575 33.2712 29.3013 33.2712H6.76651C5.21032 33.2712 3.94873 32.0095 3.94873 30.4534V9.8386C3.94873 8.28241 5.21032 7.02082 6.76651 7.02082H8.90534" stroke="black" stroke-width="1.05667" stroke-miterlimit="10" stroke-linecap="round" stroke-linejoin="round"/>
<path d="M11.3706 7.02023H29.301C30.8572 7.02023 32.1188 8.28182 32.1188 9.83801V20.7829" stroke="black" stroke-width="1.05667" stroke-miterlimit="10" stroke-linecap="round" stroke-linejoin="round"/>
<path d="M8.87979 24.6764C7.3236 24.6764 6.06201 23.4149 6.06201 21.8587V11.9514C6.06201 10.3952 7.3236 9.13365 8.87979 9.13365H27.1879C28.7441 9.13365 30.0057 10.3952 30.0057 11.9514V21.8587C30.0057 23.4149 28.7441 24.6764 27.1879 24.6764H8.87979Z" stroke="black" stroke-width="1.05667" stroke-miterlimit="10" stroke-linecap="round" stroke-linejoin="round"/>
<path d="M14.041 7.0202C14.041 5.9126 14.9389 5.01479 16.0464 5.01479H20.0213C21.1289 5.01479 22.0267 5.9126 22.0267 7.0202" stroke="black" stroke-width="1.05667" stroke-miterlimit="10" stroke-linecap="round" stroke-linejoin="round"/>
<path d="M7.68896 33.3055L8.80185 35.1905C8.92858 35.4051 9.15928 35.5368 9.40844 35.5368H11.2741C11.5233 35.5368 11.754 35.4051 11.8807 35.1905L12.999 33.2964" stroke="black" stroke-width="1.05667" stroke-miterlimit="10" stroke-linecap="round" stroke-linejoin="round"/>
<path d="M23.0703 33.3L24.1867 35.191C24.3134 35.4056 24.5441 35.5373 24.7933 35.5373H26.659C26.9082 35.5373 27.1389 35.4056 27.2656 35.191L28.3834 33.2976" stroke="black" stroke-width="1.05667" stroke-miterlimit="10" stroke-linecap="round" stroke-linejoin="round"/>
<path d="M18.0342 5.00946L29.1283 1.98521" stroke="black" stroke-width="1.05667" stroke-miterlimit="10" stroke-linecap="round" stroke-linejoin="round"/>
<path d="M31.4615 1.65638C31.4615 2.28066 30.9554 2.7868 30.3311 2.7868C29.7068 2.7868 29.2007 2.28066 29.2007 1.65638C29.2007 1.0321 29.7068 0.525956 30.3311 0.525956C30.9554 0.525956 31.4615 1.0321 31.4615 1.65638Z" stroke="black" stroke-width="1.05667" stroke-miterlimit="10" stroke-linecap="round" stroke-linejoin="round"/>
<path d="M18.0336 5.00946L7.12988 1.98993" stroke="black" stroke-width="1.05667" stroke-miterlimit="10" stroke-linecap="round" stroke-linejoin="round"/>
<path d="M4.79834 1.65638C4.79834 2.28066 5.30448 2.7868 5.92876 2.7868C6.55304 2.7868 7.05911 2.28066 7.05911 1.65638C7.05911 1.0321 6.55304 0.525956 5.92876 0.525956C5.30448 0.525956 4.79834 1.0321 4.79834 1.65638Z" stroke="black" stroke-width="1.05667" stroke-miterlimit="10" stroke-linecap="round" stroke-linejoin="round"/>
<path d="M30.0056 28.9725C30.0056 29.9362 29.2244 30.7175 28.2606 30.7175C27.2969 30.7175 26.5156 29.9362 26.5156 28.9725C26.5156 28.0087 27.2969 27.2275 28.2606 27.2275C29.2244 27.2275 30.0056 28.0087 30.0056 28.9725Z" stroke="black" stroke-width="1.05667" stroke-miterlimit="10" stroke-linecap="round" stroke-linejoin="round"/>
<path d="M26.5698 28.9723H29.9505" stroke="black" stroke-width="1.05667" stroke-miterlimit="10" stroke-linecap="round" stroke-linejoin="round"/>
<path d="M7.98766 27.2274C8.95141 27.2274 9.73264 28.0087 9.73264 28.9724C9.73264 29.9362 8.95141 30.7175 7.98766 30.7175C7.0239 30.7175 6.24268 29.9362 6.24268 28.9724C6.24268 28.0087 7.0239 27.2274 7.98766 27.2274Z" stroke="black" stroke-width="1.05667" stroke-miterlimit="10" stroke-linecap="round" stroke-linejoin="round"/>
<path d="M6.77002 30.1921L9.20648 27.7555" stroke="black" stroke-width="1.05667" stroke-miterlimit="10" stroke-linecap="round" stroke-linejoin="round"/>
<path d="M11.6934 27.0016H24.3741" stroke="black" stroke-width="1.05667" stroke-miterlimit="10" stroke-linecap="round" stroke-linejoin="round"/>
<path d="M21.1743 28.9723H24.3738" stroke="black" stroke-width="1.05667" stroke-miterlimit="10" stroke-linecap="round" stroke-linejoin="round"/>
<path d="M11.6934 28.9723H18.7091" stroke="black" stroke-width="1.05667" stroke-miterlimit="10" stroke-linecap="round" stroke-linejoin="round"/>
<path d="M11.6934 30.947H24.3741" stroke="black" stroke-width="1.05667" stroke-miterlimit="10" stroke-linecap="round" stroke-linejoin="round"/>
<path d="M26.0332 9.38624V24.4225" stroke="black" stroke-width="1.05667" stroke-miterlimit="10" stroke-linecap="round" stroke-linejoin="round"/>
<path d="M10.0562 18.7239V24.4225" stroke="black" stroke-width="1.05667" stroke-miterlimit="10" stroke-linecap="round" stroke-linejoin="round"/>
<path d="M10.0562 9.38732V16.2595" stroke="black" stroke-width="1.05667" stroke-miterlimit="10" stroke-linecap="round" stroke-linejoin="round"/>
<path d="M14.0503 9.38624V24.4225" stroke="black" stroke-width="1.05667" stroke-miterlimit="10" stroke-linecap="round" stroke-linejoin="round"/>
<path d="M18.0444 9.38624V24.4225" stroke="black" stroke-width="1.05667" stroke-miterlimit="10" stroke-linecap="round" stroke-linejoin="round"/>
<path d="M22.0391 9.38624V24.4225" stroke="black" stroke-width="1.05667" stroke-miterlimit="10" stroke-linecap="round" stroke-linejoin="round"/>
</g>
</svg>
